<svg xmlns="http://www.w3.org/2000/svg" width="378" height="393" fill="none"><path fill="#fff" d="M0 0h377.333v393H0z"/><path fill="#F5F6FA" d="M187.165 86.337A2.338 2.338 0 0 1 189.5 84a2.334 2.334 0 0 1 2.336 2.337v33.075a2.337 2.337 0 0 1-4.671 0V86.337Zm9.034.177a2.338 2.338 0 0 1 2.513-2.105 2.335 2.335 0 0 1 2.143 2.48l-2.663 32.968a2.337 2.337 0 0 1-4.655-.376l2.662-32.967Zm8.99.901a2.338 2.338 0 0 1 2.671-1.88 2.335 2.335 0 0 1 1.939 2.629l-5.307 32.647a2.336 2.336 0 1 1-4.609-.749l5.306-32.647Zm8.89 1.623a2.342 2.342 0 0 1 1.059-1.44 2.329 2.329 0 0 1 2.591.117 2.341 2.341 0 0 1 .925 1.53c.046.303.032.612-.041.91l-7.917 32.115a2.336 2.336 0 0 1-4.534-1.118l7.917-32.114Zm8.729 2.332a2.334 2.334 0 0 1 4.282-.286c.279.546.332 1.18.148 1.764l-10.476 31.374a2.334 2.334 0 0 1-4.429-1.479l10.475-31.373Zm8.514 3.028a2.338 2.338 0 0 1 3.063-1.234 2.335 2.335 0 0 1 1.233 3.064l-12.966 30.428a2.331 2.331 0 0 1-3.036 1.172 2.335 2.335 0 0 1-1.26-3.003l12.966-30.427Zm8.242 3.702a2.339 2.339 0 0 1 2.279-1.242 2.328 2.328 0 0 1 1.582.831 2.337 2.337 0 0 1 .274 2.581l-15.373 29.286a2.333 2.333 0 0 1-3.119.921 2.339 2.339 0 0 1-1.016-3.091L239.564 98.1Zm7.918 4.353a2.337 2.337 0 0 1 3.947 2.495l-17.68 27.956a2.334 2.334 0 0 1-4.251-.735 2.338 2.338 0 0 1 .305-1.762l17.679-27.954Zm7.54 4.976a2.335 2.335 0 0 1 3.734 2.806l-19.872 26.442a2.335 2.335 0 0 1-3.733-2.806l19.871-26.442Zm7.117 5.568a2.33 2.33 0 0 1 2.508-.66 2.326 2.326 0 0 1 1.57 2.066 2.328 2.328 0 0 1-.582 1.69l-21.936 24.757a2.33 2.33 0 0 1-2.508.66 2.33 2.33 0 0 1-1.338-1.185 2.33 2.33 0 0 1-.108-1.784c.1-.29.256-.558.459-.787l21.935-24.757Zm6.647 6.122a2.328 2.328 0 0 1 3.255.107 2.334 2.334 0 0 1-.022 3.26l-23.855 22.912a2.326 2.326 0 0 1-2.554.456 2.33 2.33 0 0 1-1.238-1.289 2.335 2.335 0 0 1 .556-2.535l23.858-22.911Zm6.13 6.635a2.339 2.339 0 0 1 3.286.333 2.334 2.334 0 0 1-.332 3.284l-25.624 20.918a2.32 2.32 0 0 1-1.71.515 2.322 2.322 0 0 1-1.573-.846 2.33 2.33 0 0 1-.249-2.582c.145-.271.342-.509.579-.703l25.623-20.919Zm5.577 7.11a2.323 2.323 0 0 1 3.246.593 2.328 2.328 0 0 1 .041 2.594 2.31 2.31 0 0 1-.634.654l-27.223 18.79a2.337 2.337 0 0 1-3.287-3.19c.166-.257.382-.479.634-.653l27.223-18.788Zm4.988 7.533a2.333 2.333 0 0 1 3.482 1.717 2.341 2.341 0 0 1-.462 1.726 2.33 2.33 0 0 1-.685.6l-28.647 16.538a2.334 2.334 0 0 1-3.02-3.443c.187-.243.419-.447.684-.601l28.648-16.537Zm4.365 7.91a2.332 2.332 0 0 1 3.199 2.893 2.338 2.338 0 0 1-1.197 1.326l-29.886 14.179a2.335 2.335 0 0 1-3.109-1.108 2.333 2.333 0 0 1 .377-2.567 2.34 2.34 0 0 1 .73-.544l29.886-14.179Zm3.713 8.237a2.33 2.33 0 0 1 3.01 1.354 2.333 2.333 0 0 1-1.353 3.012l-30.93 11.728a2.335 2.335 0 0 1-2.526-.582 2.344 2.344 0 0 1-.634-1.671 2.34 2.34 0 0 1 .733-1.629c.223-.21.485-.375.771-.483l30.929-11.729Zm3.039 8.508a2.349 2.349 0 0 1 1.814.158 2.343 2.343 0 0 1 .934 3.222 2.334 2.334 0 0 1-1.448 1.105l-31.774 9.201a2.325 2.325 0 0 1-2.479-.779 2.333 2.333 0 0 1 1.181-3.705l31.772-9.202Zm2.345 8.724a2.333 2.333 0 0 1 2.704 1.831 2.337 2.337 0 0 1-1.77 2.745l-32.411 6.616a2.333 2.333 0 0 1-2.45-3.586 2.324 2.324 0 0 1 1.516-.99l32.411-6.616Zm1.635 8.887a2.33 2.33 0 0 1 2.597 2.035 2.33 2.33 0 0 1-.479 1.721 2.33 2.33 0 0 1-1.555.879l-32.838 3.987a2.334 2.334 0 0 1-.564-4.635l32.839-3.987Zm.914 8.988a2.342 2.342 0 0 1 2.284 1.331 2.34 2.34 0 0 1-.422 2.611 2.329 2.329 0 0 1-1.674.723l-33.051 1.332a2.342 2.342 0 0 1-1.687-.61 2.341 2.341 0 0 1-.755-1.627 2.321 2.321 0 0 1 .143-.904 2.32 2.32 0 0 1 1.22-1.315c.28-.128.583-.199.89-.209l33.052-1.332Zm.188 9.033a2.32 2.32 0 0 1 1.632.744 2.352 2.352 0 0 1 .622 1.683 2.344 2.344 0 0 1-1.538 2.101 2.32 2.32 0 0 1-.904.137l-33.052-1.332a2.334 2.334 0 0 1-2.319-2.43 2.327 2.327 0 0 1 .779-1.65 2.33 2.33 0 0 1 1.727-.585l33.053 1.332Zm-.539 9.018a2.33 2.33 0 0 1 1.555.879 2.334 2.334 0 0 1-2.118 3.756l-32.839-3.987a2.346 2.346 0 0 1-1.555-.878 2.345 2.345 0 0 1-.195-2.587 2.342 2.342 0 0 1 2.314-1.17l32.838 3.987Zm-1.264 8.946a2.327 2.327 0 0 1 1.479 1 2.338 2.338 0 0 1-.66 3.235 2.332 2.332 0 0 1-1.753.339l-32.411-6.614a2.339 2.339 0 0 1-1.51-3.617 2.334 2.334 0 0 1 2.444-.959l32.411 6.616Zm-1.979 8.815a2.328 2.328 0 0 1 1.394 1.117 2.334 2.334 0 0 1-2.694 3.368l-31.772-9.202a2.331 2.331 0 0 1-1.601-2.895 2.32 2.32 0 0 1 1.119-1.397 2.335 2.335 0 0 1 1.78-.192l31.774 9.201Zm-2.683 8.627a2.349 2.349 0 0 1 1.302 1.225 2.324 2.324 0 0 1 .054 1.786 2.337 2.337 0 0 1-3.012 1.356l-30.929-11.73a2.324 2.324 0 0 1-1.3-1.225 2.338 2.338 0 0 1 1.171-3.086 2.33 2.33 0 0 1 1.785-.054l30.929 11.728Zm-3.367 8.384a2.34 2.34 0 0 1 1.329 2.228 2.333 2.333 0 0 1-3.331 1.991l-29.886-14.179a2.34 2.34 0 0 1-1.329-2.228 2.333 2.333 0 0 1 3.331-1.991l29.886 14.179Zm-4.032 8.086a2.33 2.33 0 0 1 .854 3.189 2.333 2.333 0 0 1-3.189.854l-28.648-16.537a2.341 2.341 0 0 1-.852-3.19 2.318 2.318 0 0 1 1.417-1.088 2.341 2.341 0 0 1 1.771.234l28.647 16.538Zm-4.67 7.735a2.336 2.336 0 0 1 .971 1.5 2.347 2.347 0 0 1-.376 1.747 2.337 2.337 0 0 1-3.248.596l-27.223-18.79a2.333 2.333 0 0 1-.595-3.247 2.337 2.337 0 0 1 3.248-.596l27.223 18.79Zm-5.276 7.334a2.334 2.334 0 0 1-1.242 4.131 2.34 2.34 0 0 1-1.712-.514l-25.623-20.919a2.327 2.327 0 0 1-.845-1.574 2.338 2.338 0 0 1 1.217-2.291 2.322 2.322 0 0 1 1.777-.179c.294.088.567.234.804.428l25.624 20.918Zm-5.851 6.885a2.333 2.333 0 0 1-1.57 4.018 2.33 2.33 0 0 1-1.665-.651l-23.856-22.911a2.333 2.333 0 0 1-.556-2.535 2.345 2.345 0 0 1 1.238-1.289 2.331 2.331 0 0 1 2.554.456l23.855 22.912Zm-6.384 6.393a2.337 2.337 0 0 1-1.889 3.879 2.334 2.334 0 0 1-1.606-.783l-21.936-24.757a2.335 2.335 0 0 1 3.495-3.096l21.936 24.757Zm-6.879 5.858a2.34 2.34 0 0 1-.463 3.269 2.337 2.337 0 0 1-3.271-.463l-19.871-26.442a2.337 2.337 0 0 1 3.733-2.806l19.872 26.442Zm-7.327 5.287a2.342 2.342 0 0 1-.758 3.173 2.331 2.331 0 0 1-3.19-.678l-17.68-27.954a2.339 2.339 0 0 1 .726-3.222 2.335 2.335 0 0 1 3.222.725l17.68 27.956Zm-7.73 4.678a2.336 2.336 0 0 1-4.135 2.17l-15.373-29.286a2.339 2.339 0 0 1 2.762-3.263 2.333 2.333 0 0 1 1.373 1.093l15.373 29.286Zm-8.081 4.042a2.337 2.337 0 0 1-3.02 3.082 2.337 2.337 0 0 1-1.276-1.252l-12.967-30.427a2.338 2.338 0 0 1 3.015-3.019 2.337 2.337 0 0 1 1.282 1.188l12.966 30.428Zm-8.38 3.38a2.338 2.338 0 0 1-3.248 2.767 2.336 2.336 0 0 1-1.182-1.289l-10.475-31.373a2.343 2.343 0 0 1 .162-1.75 2.333 2.333 0 0 1 4.267.271l10.476 31.374Zm-8.625 2.693a2.338 2.338 0 0 1-1.709 2.827 2.332 2.332 0 0 1-2.825-1.71l-7.917-32.114a2.349 2.349 0 0 1 .27-1.768 2.334 2.334 0 0 1 4.264.65l7.917 32.115Zm-8.814 1.991a2.336 2.336 0 1 1-4.61.749l-5.306-32.647a2.348 2.348 0 0 1 .411-1.741 2.334 2.334 0 0 1 4.198.992l5.307 32.647Zm-8.944 1.275a2.34 2.34 0 0 1-2.14 2.517 2.336 2.336 0 0 1-2.516-2.142l-2.662-32.967a2.335 2.335 0 0 1 4.655-.376l2.663 32.968Zm-9.019.552a2.337 2.337 0 0 1-4.671 0v-33.075a2.336 2.336 0 1 1 4.671 0v33.075Zm-9.035-.177a2.336 2.336 0 1 1-4.656-.375l2.663-32.968a2.338 2.338 0 0 1 2.515-2.141 2.338 2.338 0 0 1 2.035 1.611c.094.292.13.6.105.906l-2.662 32.967Zm-8.99-.901a2.336 2.336 0 1 1-4.61-.749l5.307-32.647a2.336 2.336 0 1 1 4.609.749l-5.306 32.647Zm-8.89-1.623a2.332 2.332 0 0 1-2.825 1.71 2.339 2.339 0 0 1-1.709-2.827l7.917-32.115a2.336 2.336 0 0 1 4.534 1.118l-7.917 32.114Zm-8.729-2.332a2.333 2.333 0 0 1-4.282.286 2.336 2.336 0 0 1-.148-1.764l10.476-31.374a2.334 2.334 0 0 1 4.429 1.479l-10.475 31.373Zm-8.514-3.028a2.337 2.337 0 0 1-3.063 1.234 2.337 2.337 0 0 1-1.233-3.064l12.966-30.428a2.331 2.331 0 0 1 3.036-1.172 2.335 2.335 0 0 1 1.26 3.003l-12.966 30.427Zm-8.241-3.702a2.339 2.339 0 0 1-3.114.911 2.34 2.34 0 0 1-1.022-3.081l15.373-29.287a2.332 2.332 0 0 1 3.107-.897 2.336 2.336 0 0 1 1.028 3.068L139.437 298.9Zm-7.919-4.353a2.337 2.337 0 0 1-3.22.727 2.337 2.337 0 0 1-.727-3.222l17.68-27.956a2.334 2.334 0 1 1 3.946 2.497l-17.679 27.954Zm-7.54-4.976a2.336 2.336 0 0 1-3.734-2.806l19.872-26.442a2.335 2.335 0 0 1 3.733 2.806l-19.871 26.442Zm-7.117-5.568a2.33 2.33 0 0 1-2.508.66 2.326 2.326 0 0 1-1.57-2.066 2.328 2.328 0 0 1 .582-1.69l21.936-24.757a2.33 2.33 0 0 1 2.508-.66 2.33 2.33 0 0 1 1.338 1.185 2.33 2.33 0 0 1 .108 1.784c-.1.29-.256.558-.459.787l-21.935 24.757Zm-6.647-6.122a2.328 2.328 0 0 1-3.255-.107 2.334 2.334 0 0 1 .022-3.26l23.855-22.912a2.326 2.326 0 0 1 2.554-.456 2.33 2.33 0 0 1 1.238 1.289 2.335 2.335 0 0 1-.556 2.535l-23.858 22.911Zm-6.13-6.635a2.339 2.339 0 0 1-3.8-2.044 2.34 2.34 0 0 1 .846-1.573l25.624-20.918a2.32 2.32 0 0 1 1.71-.515 2.322 2.322 0 0 1 1.573.846 2.33 2.33 0 0 1 .249 2.582 2.327 2.327 0 0 1-.579.703l-25.623 20.919Zm-5.577-7.11a2.312 2.312 0 0 1-.836.362 2.337 2.337 0 0 1-2.772-1.791 2.336 2.336 0 0 1 .954-2.412l27.224-18.79a2.337 2.337 0 0 1 3.248.596 2.333 2.333 0 0 1-.595 3.247l-27.223 18.788Zm-4.988-7.533a2.335 2.335 0 0 1-2.335-4.043l28.647-16.538a2.334 2.334 0 0 1 3.02 3.443 2.357 2.357 0 0 1-.684.601l-28.648 16.537Zm-4.365-7.91a2.33 2.33 0 0 1-3.109-1.108 2.336 2.336 0 0 1 1.107-3.111l29.886-14.179a2.335 2.335 0 1 1 2.002 4.219l-29.886 14.179Zm-3.713-8.236a2.338 2.338 0 0 1-3.163-2.254 2.335 2.335 0 0 1 1.506-2.113l30.93-11.728a2.336 2.336 0 0 1 1.656 4.365l-30.93 11.73Zm-3.04-8.509a2.345 2.345 0 0 1-1.813-.158 2.338 2.338 0 0 1 .514-4.327l31.774-9.201a2.325 2.325 0 0 1 2.479.779 2.332 2.332 0 0 1-1.181 3.705l-31.773 9.202Zm-2.344-8.724a2.334 2.334 0 0 1-2.378-3.565c.33-.513.85-.876 1.444-1.011l32.411-6.616a2.333 2.333 0 0 1 2.45 3.586 2.324 2.324 0 0 1-1.516.99l-32.411 6.616Zm-1.635-8.887a2.336 2.336 0 0 1-1.72-.479 2.336 2.336 0 0 1 1.157-4.156l32.838-3.987a2.334 2.334 0 0 1 .564 4.635l-32.839 3.987Zm-.914-8.988a2.335 2.335 0 0 1-1.862-3.942 2.326 2.326 0 0 1 1.674-.723l33.051-1.332a2.342 2.342 0 0 1 1.687.61 2.341 2.341 0 0 1 .755 1.627c.013.308-.036.615-.143.904a2.32 2.32 0 0 1-1.22 1.315c-.28.128-.583.199-.89.209l-33.052 1.332Zm-.188-9.033a2.323 2.323 0 0 1-1.632-.744 2.339 2.339 0 0 1 .134-3.311 2.32 2.32 0 0 1 .782-.473 2.32 2.32 0 0 1 .904-.137l33.052 1.332a2.334 2.334 0 0 1 2.319 2.43 2.327 2.327 0 0 1-.779 1.649 2.333 2.333 0 0 1-1.727.586l-33.053-1.332Zm.539-9.018a2.326 2.326 0 0 1-1.555-.879 2.326 2.326 0 0 1-.48-1.721 2.335 2.335 0 0 1 2.598-2.035l32.839 3.987a2.337 2.337 0 0 1 2.034 2.599 2.334 2.334 0 0 1-2.598 2.036l-32.838-3.987Zm1.264-8.946a2.321 2.321 0 0 1-1.48-1 2.342 2.342 0 0 1 .013-2.595 2.336 2.336 0 0 1 2.4-.981l32.412 6.616a2.339 2.339 0 0 1 1.51 3.617 2.334 2.334 0 0 1-2.444.959l-32.41-6.616Zm1.979-8.815a2.336 2.336 0 0 1 .393-4.563 2.33 2.33 0 0 1 .906.078l31.773 9.202a2.331 2.331 0 0 1 1.601 2.895 2.32 2.32 0 0 1-1.12 1.397 2.324 2.324 0 0 1-1.779.192l-31.774-9.201Zm2.683-8.627a2.345 2.345 0 0 1-1.302-1.225 2.331 2.331 0 0 1-.054-1.786 2.335 2.335 0 0 1 3.011-1.356l30.93 11.73a2.333 2.333 0 0 1 1.353 3.011 2.331 2.331 0 0 1-3.009 1.354L83.785 160.91Zm3.367-8.384a2.35 2.35 0 0 1-1.197-1.326 2.34 2.34 0 0 1 .634-2.516 2.33 2.33 0 0 1 2.565-.377l29.886 14.179a2.334 2.334 0 0 1 1.107 3.111 2.335 2.335 0 0 1-3.109 1.108l-29.886-14.179Zm4.032-8.086a2.332 2.332 0 0 1-.854-3.189 2.334 2.334 0 0 1 3.19-.854l28.647 16.537a2.341 2.341 0 0 1 .852 3.19 2.318 2.318 0 0 1-1.417 1.088 2.341 2.341 0 0 1-1.771-.234L91.184 144.44Zm4.67-7.735a2.326 2.326 0 0 1-.97-1.501 2.336 2.336 0 0 1 2.787-2.702c.3.064.584.187.836.362l27.223 18.788a2.333 2.333 0 0 1 .595 3.247 2.337 2.337 0 0 1-3.248.596l-27.224-18.79Zm5.276-7.334a2.34 2.34 0 0 1-.332-3.284 2.339 2.339 0 0 1 3.286-.333l25.623 20.919a2.327 2.327 0 0 1 .845 1.574 2.338 2.338 0 0 1-1.217 2.291 2.322 2.322 0 0 1-1.777.179 2.32 2.32 0 0 1-.804-.428l-25.624-20.918Zm5.851-6.885a2.328 2.328 0 0 1-.558-2.534 2.335 2.335 0 0 1 3.793-.833l23.856 22.911a2.335 2.335 0 0 1-3.236 3.368l-23.855-22.912Zm6.384-6.393a2.328 2.328 0 0 1-.351-2.571 2.343 2.343 0 0 1 2.24-1.308 2.332 2.332 0 0 1 1.606.783l21.936 24.757a2.335 2.335 0 0 1-3.495 3.096l-21.936-24.757Zm6.879-5.858a2.34 2.34 0 0 1 .463-3.269 2.336 2.336 0 0 1 3.271.463l19.871 26.442a2.337 2.337 0 0 1-3.733 2.806l-19.872-26.442Zm7.327-5.287a2.336 2.336 0 0 1 3.948-2.495l17.68 27.954a2.339 2.339 0 0 1-.726 3.222 2.335 2.335 0 0 1-3.222-.725l-17.68-27.956Zm7.73-4.678a2.337 2.337 0 0 1 2.762-3.262 2.339 2.339 0 0 1 1.373 1.093l15.373 29.285a2.339 2.339 0 0 1-2.762 3.263 2.333 2.333 0 0 1-1.373-1.093l-15.373-29.286Zm8.081-4.042a2.337 2.337 0 0 1 3.02-3.082 2.338 2.338 0 0 1 1.276 1.252l12.967 30.427a2.338 2.338 0 0 1-3.015 3.019 2.337 2.337 0 0 1-1.282-1.188l-12.966-30.428Zm8.38-3.38a2.336 2.336 0 0 1 4.43-1.478l10.475 31.373c.175.583.117 1.21-.162 1.75a2.333 2.333 0 0 1-4.267-.271l-10.476-31.374Zm8.625-2.693a2.34 2.34 0 0 1 1.709-2.827 2.332 2.332 0 0 1 2.825 1.71l7.917 32.114a2.349 2.349 0 0 1-.269 1.768 2.32 2.32 0 0 1-2.35 1.1 2.32 2.32 0 0 1-1.529-.925 2.329 2.329 0 0 1-.386-.825l-7.917-32.115Zm8.814-1.991a2.337 2.337 0 0 1 4.61-.749l5.306 32.647a2.336 2.336 0 0 1-3.67 2.27 2.34 2.34 0 0 1-.939-1.521l-5.307-32.647Zm8.944-1.275a2.34 2.34 0 0 1 2.143-2.48 2.334 2.334 0 0 1 2.513 2.105l2.662 32.967a2.335 2.335 0 0 1-4.655.376l-2.663-32.968Z"/><path fill="url(#a)" d="M186.87 86.337a2.337 2.337 0 0 1 2.335-2.336 2.335 2.335 0 0 1 2.335 2.336v33.075a2.336 2.336 0 1 1-4.67 0V86.337Z"/><path fill="url(#b)" d="M195.905 86.514a2.337 2.337 0 0 1 2.515-2.14 2.333 2.333 0 0 1 2.139 2.516l-2.661 32.967a2.336 2.336 0 0 1-4.655-.376l2.662-32.967Z"/><path fill="url(#c)" d="M204.895 87.415a2.334 2.334 0 1 1 4.61.749l-5.307 32.647a2.337 2.337 0 0 1-2.678 1.932 2.34 2.34 0 0 1-1.521-.94 2.34 2.34 0 0 1-.41-1.741l5.306-32.647Z"/><path fill="url(#d)" d="M213.783 89.038a2.337 2.337 0 0 1 4.535 1.118l-7.916 32.114a2.34 2.34 0 0 1-2.818 1.677 2.334 2.334 0 0 1-1.717-2.794l7.916-32.115Z"/><path fill="url(#e)" d="M222.514 91.37a2.335 2.335 0 1 1 4.429 1.478l-10.475 31.373a2.339 2.339 0 0 1-1.172 1.35 2.34 2.34 0 0 1-3.132-1.046 2.323 2.323 0 0 1-.126-1.782l10.476-31.374Z"/><path fill="url(#f)" d="M231.027 94.399a2.335 2.335 0 0 1 4.264.082c.236.557.248 1.183.033 1.749l-12.966 30.427a2.337 2.337 0 0 1-4.297-1.831l12.966-30.427Z"/><path fill="url(#g)" d="M239.269 98.1a2.338 2.338 0 0 1 3.124-.93 2.34 2.34 0 0 1 1.011 3.1l-15.372 29.286a2.336 2.336 0 0 1-4.136-2.17L239.269 98.1Z"/><path fill="url(#h)" d="M247.187 102.454a2.334 2.334 0 1 1 3.946 2.495l-17.678 27.956a2.339 2.339 0 0 1-3.222.725 2.323 2.323 0 0 1-1.03-1.461 2.328 2.328 0 0 1 .304-1.761l17.68-27.954Z"/><path fill="url(#i)" d="M254.728 107.43a2.334 2.334 0 0 1 3.269-.463 2.333 2.333 0 0 1 .465 3.268l-19.872 26.442a2.336 2.336 0 0 1-4.128-1.985c.076-.296.211-.575.395-.82l19.871-26.442Z"/><path fill="url(#j)" d="M261.845 112.998a2.33 2.33 0 0 1 2.508-.66c.29.1.557.256.786.46a2.332 2.332 0 0 1 .201 3.297l-21.935 24.756a2.33 2.33 0 0 1-1.606.783 2.332 2.332 0 0 1-2.471-2.189 2.337 2.337 0 0 1 .582-1.69l21.935-24.757Z"/><path fill="url(#k)" d="M268.491 119.119a2.335 2.335 0 1 1 3.235 3.367l-23.857 22.913a2.337 2.337 0 0 1-3.236-3.369l23.858-22.911Z"/><path fill="url(#l)" d="M274.622 125.755a2.333 2.333 0 1 1 2.952 3.616l-25.622 20.919a2.337 2.337 0 0 1-3.534-2.914c.145-.27.342-.509.58-.703l25.624-20.918Z"/><path fill="url(#m)" d="M280.199 132.864a2.345 2.345 0 0 1 1.746-.376 2.33 2.33 0 0 1 1.862 1.806 2.347 2.347 0 0 1-.321 1.758c-.166.258-.382.48-.634.654l-27.224 18.789a2.342 2.342 0 0 1-2.593.04 2.333 2.333 0 0 1-1.029-2.382 2.35 2.35 0 0 1 .97-1.501l27.223-18.788Z"/><path fill="url(#n)" d="M285.187 140.397a2.319 2.319 0 0 1 2.587.169 2.327 2.327 0 0 1 .893 1.547c.04.304.02.613-.06.909a2.32 2.32 0 0 1-1.086 1.418l-28.647 16.537a2.33 2.33 0 0 1-3.131-.887 2.336 2.336 0 0 1 .796-3.156l28.648-16.537Z"/><path fill="url(#o)" d="M289.552 148.308a2.332 2.332 0 0 1 3.198 2.893 2.334 2.334 0 0 1-1.198 1.325l-29.884 14.18a2.333 2.333 0 0 1-3.199-2.893c.102-.289.261-.555.467-.782a2.31 2.31 0 0 1 .73-.544l29.886-14.179Z"/><path fill="url(#p)" d="M293.265 156.544a2.34 2.34 0 0 1 1.822.011 2.334 2.334 0 0 1 1.19 3.137 2.333 2.333 0 0 1-1.356 1.217l-30.929 11.729a2.338 2.338 0 0 1-3.163-2.253 2.343 2.343 0 0 1 .734-1.63 2.33 2.33 0 0 1 .773-.482l30.929-11.729Z"/><path fill="url(#q)" d="M296.304 165.053a2.329 2.329 0 0 1 2.479.779 2.348 2.348 0 0 1 .499 1.72 2.347 2.347 0 0 1-.867 1.568 2.34 2.34 0 0 1-.812.417l-31.773 9.202a2.345 2.345 0 0 1-1.813-.158 2.341 2.341 0 0 1-1.149-1.413 2.341 2.341 0 0 1 .826-2.508c.249-.19.533-.328.836-.406l31.774-9.201Z"/><path fill="url(#r)" d="M298.648 173.778a2.342 2.342 0 0 1 1.753.339 2.323 2.323 0 0 1 1 1.481 2.328 2.328 0 0 1-.339 1.754 2.336 2.336 0 0 1-1.479 1.001l-32.411 6.616a2.339 2.339 0 0 1-1.704-.381 2.34 2.34 0 0 1 .769-4.195l32.411-6.615Z"/><path fill="url(#s)" d="M300.283 182.663a2.326 2.326 0 0 1 1.768.446 2.334 2.334 0 0 1 .834 2.508 2.327 2.327 0 0 1-1.148 1.417 2.339 2.339 0 0 1-.891.264l-32.839 3.987a2.33 2.33 0 0 1-1.673-.513 2.337 2.337 0 0 1 1.111-4.122l32.838-3.987Z"/><path fill="url(#t)" d="M301.198 191.651a2.324 2.324 0 0 1 2.284 1.33 2.345 2.345 0 0 1 .073 1.824 2.335 2.335 0 0 1-2.169 1.51l-33.053 1.333a2.342 2.342 0 0 1-2.284-1.331 2.327 2.327 0 0 1-.074-1.823 2.329 2.329 0 0 1 2.17-1.511l33.053-1.332Z"/><path fill="url(#u)" d="M301.386 200.684a2.32 2.32 0 0 1 1.632.744 2.341 2.341 0 0 1 .407 2.573 2.344 2.344 0 0 1-1.323 1.211 2.338 2.338 0 0 1-.904.137l-33.053-1.332a2.343 2.343 0 0 1-1.632-.745 2.338 2.338 0 0 1-.406-2.572 2.326 2.326 0 0 1 1.322-1.212c.29-.105.597-.151.905-.136l33.052 1.332Z"/><path fill="url(#v)" d="M300.846 209.702a2.35 2.35 0 0 1 1.609.856 2.327 2.327 0 0 1 .504 1.753 2.327 2.327 0 0 1-1.746 1.983c-.304.077-.62.091-.929.043l-32.839-3.987a2.328 2.328 0 0 1-1.966-1.69 2.343 2.343 0 0 1 .809-2.465 2.326 2.326 0 0 1 1.72-.48l32.838 3.987Z"/><path fill="url(#w)" d="M299.583 218.648a2.336 2.336 0 1 1-.935 4.574l-32.411-6.614a2.342 2.342 0 0 1-1.511-.991 2.343 2.343 0 0 1-.352-1.774 2.33 2.33 0 0 1 1.019-1.493 2.338 2.338 0 0 1 1.779-.318l32.411 6.616Z"/><path fill="url(#x)" d="M297.603 227.464c.303.077.588.214.838.403a2.337 2.337 0 0 1-1.213 4.188 2.335 2.335 0 0 1-.924-.107l-31.773-9.202a2.326 2.326 0 0 1-1.669-1.985 2.34 2.34 0 0 1 1.194-2.302 2.315 2.315 0 0 1 1.774-.197l31.773 9.202Z"/><path fill="url(#y)" d="M294.921 236.091a2.34 2.34 0 0 1 1.504 2.113 2.336 2.336 0 0 1-2.262 2.405 2.335 2.335 0 0 1-.898-.151l-30.93-11.73a2.33 2.33 0 0 1-1.355-3.01 2.335 2.335 0 0 1 3.011-1.355l30.93 11.728Z"/><path fill="url(#z)" d="M291.554 244.474a2.352 2.352 0 0 1 1.197 1.327 2.338 2.338 0 0 1-.634 2.515 2.325 2.325 0 0 1-2.565.377l-29.886-14.179a2.34 2.34 0 0 1-1.33-2.228 2.329 2.329 0 0 1 1.548-2.081 2.342 2.342 0 0 1 1.784.09l29.886 14.179Z"/><path fill="url(#A)" d="M287.521 252.56a2.338 2.338 0 0 1 .853 3.189 2.331 2.331 0 0 1-3.188.854l-28.647-16.537a2.33 2.33 0 0 1-1.087-1.418 2.341 2.341 0 0 1 .834-2.456 2.322 2.322 0 0 1 1.725-.462c.304.04.597.139.862.293l28.648 16.537Z"/><path fill="url(#B)" d="M282.852 260.294a2.336 2.336 0 0 1-2.653 3.843l-27.223-18.789a2.336 2.336 0 0 1 2.652-3.843l27.224 18.789Z"/><path fill="url(#C)" d="M277.574 267.629a2.333 2.333 0 1 1-2.952 3.617l-25.624-20.918a2.338 2.338 0 0 1 1.243-4.133 2.334 2.334 0 0 1 1.711.516l25.622 20.918Z"/><path fill="url(#D)" d="M271.726 274.514a2.334 2.334 0 1 1-3.235 3.367l-23.858-22.911a2.342 2.342 0 0 1-.012-3.252 2.337 2.337 0 0 1 3.248-.116l23.857 22.912Z"/><path fill="url(#E)" d="M265.34 280.907a2.334 2.334 0 0 1-.201 3.297 2.33 2.33 0 0 1-3.294-.201l-21.935-24.757a2.334 2.334 0 0 1 .201-3.297 2.33 2.33 0 0 1 3.294.201l21.935 24.757Z"/><path fill="url(#F)" d="M258.462 286.765a2.329 2.329 0 0 1 .444 1.731 2.333 2.333 0 0 1-2.639 1.983 2.339 2.339 0 0 1-1.539-.909l-19.872-26.441a2.339 2.339 0 0 1 2.202-3.666 2.336 2.336 0 0 1 1.531.86l19.873 26.442Z"/><path fill="url(#G)" d="M251.133 292.052a2.337 2.337 0 0 1-.726 3.222 2.335 2.335 0 0 1-3.22-.727l-17.68-27.954a2.339 2.339 0 0 1 2.49-3.479 2.338 2.338 0 0 1 1.457.982l17.679 27.956Z"/><path fill="url(#H)" d="M243.404 296.73a2.344 2.344 0 0 1 .162 1.78 2.322 2.322 0 0 1-1.144 1.372 2.336 2.336 0 0 1-3.153-.981l-15.372-29.287a2.341 2.341 0 0 1 1.016-3.091 2.335 2.335 0 0 1 3.119.922l15.372 29.285Z"/><path fill="url(#I)" d="M235.323 300.772a2.338 2.338 0 0 1-3.015 3.018 2.34 2.34 0 0 1-1.282-1.188l-12.965-30.427a2.345 2.345 0 0 1-.018-1.788 2.325 2.325 0 0 1 2.142-1.464 2.341 2.341 0 0 1 2.171 1.421l12.967 30.428Z"/><path fill="url(#J)" d="M226.943 304.152a2.343 2.343 0 0 1-1.497 2.893 2.337 2.337 0 0 1-2.933-1.414l-10.475-31.374a2.338 2.338 0 0 1 3.248-2.767c.546.26.969.722 1.182 1.288l10.475 31.374Z"/><path fill="url(#K)" d="M218.318 306.845a2.33 2.33 0 0 1-2.619 2.869 2.332 2.332 0 0 1-1.916-1.751l-7.916-32.114a2.337 2.337 0 0 1 3.469-2.534c.527.314.91.823 1.066 1.416l7.916 32.114Z"/><path fill="url(#L)" d="M209.505 308.837a2.337 2.337 0 0 1-3.67 2.27 2.337 2.337 0 0 1-.94-1.521l-5.306-32.647a2.348 2.348 0 0 1 .41-1.741 2.337 2.337 0 0 1 3.881.138c.161.261.269.551.318.854l5.307 32.647Z"/><path fill="url(#M)" d="M200.559 310.111a2.332 2.332 0 0 1-2.139 2.515 2.332 2.332 0 0 1-2.515-2.139l-2.662-32.968a2.333 2.333 0 0 1 3.841-1.967c.471.401.764.974.814 1.592l2.661 32.967Z"/><path fill="url(#N)" d="M191.54 310.664a2.34 2.34 0 0 1-2.335 2.336 2.335 2.335 0 0 1-2.335-2.336v-33.075a2.336 2.336 0 1 1 4.67 0v33.075Z"/><path fill="url(#O)" d="M182.507 310.486a2.336 2.336 0 1 1-4.656-.375l2.663-32.968a2.335 2.335 0 1 1 4.654.376l-2.661 32.967Z"/><path fill="url(#P)" d="M173.515 309.586a2.338 2.338 0 0 1-2.679 1.932 2.338 2.338 0 0 1-1.93-2.681l5.306-32.647a2.338 2.338 0 0 1 2.679-1.932 2.327 2.327 0 0 1 1.52.94 2.335 2.335 0 0 1 .411 1.741l-5.307 32.647Z"/><path fill="url(#Q)" d="M164.627 307.963a2.353 2.353 0 0 1-1.059 1.44 2.327 2.327 0 0 1-2.592-.117 2.335 2.335 0 0 1-.883-2.441l7.915-32.114a2.34 2.34 0 0 1 2.818-1.676 2.336 2.336 0 0 1 1.717 2.794l-7.916 32.114Z"/><path fill="url(#R)" d="M155.897 305.63a2.336 2.336 0 0 1-4.43-1.479l10.476-31.373a2.338 2.338 0 0 1 2.933-1.414 2.338 2.338 0 0 1 1.496 2.892l-10.475 31.374Z"/><path fill="url(#S)" d="M147.384 302.602a2.337 2.337 0 0 1-4.297-1.83l12.967-30.428a2.335 2.335 0 1 1 4.296 1.831l-12.966 30.427Z"/><path fill="url(#T)" d="M139.142 298.901a2.341 2.341 0 0 1-3.107.897 2.336 2.336 0 0 1-1.028-3.068l15.373-29.285a2.333 2.333 0 0 1 3.119-.922 2.34 2.34 0 0 1 1.016 3.091l-15.373 29.287Z"/><path fill="#fff" d="M189.775 137.546h-.002c-33.793 0-61.187 27.413-61.187 61.228v.001c0 33.815 27.394 61.228 61.187 61.228h.002c33.792 0 61.187-27.413 61.187-61.228v-.001c0-33.815-27.395-61.228-61.187-61.228Z"/><path fill="#000" d="m195.876 197.588 18.12-22.35h4.2l-18.12 22.35h-4.2Zm3.51-11.01c-1.12 0-2.13-.26-3.03-.78a6.117 6.117 0 0 1-2.1-2.13c-.52-.88-.78-1.86-.78-2.94 0-1.08.26-2.06.78-2.94.52-.9 1.22-1.61 2.1-2.13.9-.52 1.9-.78 3-.78 1.12 0 2.12.26 3 .78.88.52 1.58 1.23 2.1 2.13.52.88.78 1.86.78 2.94 0 1.08-.26 2.06-.78 2.94-.52.88-1.22 1.59-2.1 2.13-.88.52-1.87.78-2.97.78Zm-.03-3.03c.6 0 1.1-.13 1.5-.39.4-.28.7-.63.9-1.05.22-.44.33-.9.33-1.38 0-.5-.11-.96-.33-1.38-.2-.42-.5-.77-.9-1.05s-.9-.42-1.5-.42c-.56 0-1.05.14-1.47.42-.4.28-.71.64-.93 1.08-.22.42-.33.87-.33 1.35 0 .46.11.91.33 1.35.22.44.53.8.93 1.08.42.26.91.39 1.47.39Zm15.24 14.4c-1.1 0-2.1-.26-3-.78a6.117 6.117 0 0 1-2.1-2.13c-.52-.88-.78-1.86-.78-2.94 0-1.08.26-2.06.78-2.94.52-.9 1.22-1.61 2.1-2.13.9-.52 1.9-.78 3-.78 1.12 0 2.12.26 3 .78.88.52 1.58 1.23 2.1 2.13.52.88.78 1.86.78 2.94 0 1.08-.26 2.06-.78 2.94-.52.88-1.22 1.59-2.1 2.13-.88.52-1.88.78-3 .78Zm0-3.03c.58 0 1.07-.13 1.47-.39.42-.28.73-.63.93-1.05.22-.44.33-.9.33-1.38 0-.5-.11-.96-.33-1.38-.2-.42-.51-.77-.93-1.05-.4-.28-.89-.42-1.47-.42-.56 0-1.05.14-1.47.42-.4.28-.71.64-.93 1.08-.22.42-.33.87-.33 1.35 0 .46.11.91.33 1.35.22.44.53.8.93 1.08.42.26.91.39 1.47.39Zm-32.785 3.03c-1.62 0-3.03-.3-4.23-.9-1.18-.62-2.1-1.45-2.76-2.49a6.401 6.401 0 0 1-.96-3.42c0-1.46.39-2.69 1.17-3.69.78-1.02 1.91-1.77 3.39-2.25l-.24.99c-1.06-.34-1.9-1-2.52-1.98-.6-.98-.9-2.06-.9-3.24 0-1.18.3-2.23.9-3.15.6-.92 1.43-1.64 2.49-2.16 1.06-.52 2.28-.78 3.66-.78 1.36 0 2.56.26 3.6.78 1.06.52 1.89 1.24 2.49 2.16.62.92.93 1.97.93 3.15 0 1.2-.31 2.29-.93 3.27-.6.96-1.43 1.62-2.49 1.98l-.21-1.05c1.48.52 2.61 1.29 3.39 2.31.78 1 1.17 2.23 1.17 3.69 0 1.24-.33 2.38-.99 3.42-.64 1.02-1.56 1.84-2.76 2.46-1.18.6-2.58.9-4.2.9Zm0-3.45c.78 0 1.46-.14 2.04-.42.58-.3 1.03-.71 1.35-1.23.32-.54.48-1.15.48-1.83 0-.7-.16-1.3-.48-1.8-.32-.52-.77-.92-1.35-1.2-.58-.3-1.26-.45-2.04-.45s-1.46.15-2.04.45c-.56.28-1 .68-1.32 1.2-.32.5-.48 1.1-.48 1.8 0 .68.16 1.29.48 1.83.32.52.76.93 1.32 1.23.58.28 1.26.42 2.04.42Zm0-10.38c.58 0 1.09-.13 1.53-.39.44-.26.78-.6 1.02-1.02.26-.44.39-.94.39-1.5s-.13-1.05-.39-1.47c-.24-.44-.58-.78-1.02-1.02-.44-.26-.95-.39-1.53-.39-.58 0-1.1.13-1.56.39-.44.24-.79.58-1.05 1.02-.24.42-.36.91-.36 1.47 0 .56.12 1.06.36 1.5.26.42.61.76 1.05 1.02.46.26.98.39 1.56.39Zm-24.078 13.47 9.3-18.9h-10.53v-3.45h14.82v3.45l-9.09 18.9h-4.5Z"/><path fill="#66677D" d="M212.904 213.518v-7.57h.93v3.23l-.17-.09c.134-.34.347-.604.64-.79.3-.194.65-.29 1.05-.29.387 0 .73.086 1.03.26.307.173.547.413.72.72.18.306.27.653.27 1.04v3.49h-.94v-3.19c0-.3-.056-.554-.17-.76a1.147 1.147 0 0 0-.45-.48 1.242 1.242 0 0 0-.67-.18c-.246 0-.47.06-.67.18-.2.113-.356.276-.47.49a1.54 1.54 0 0 0-.17.75v3.19h-.93Zm-1.774.06c-.527 0-.934-.15-1.22-.45-.28-.3-.42-.724-.42-1.27v-2.84h-.98v-.89h.2c.24 0 .43-.074.57-.22.14-.147.21-.34.21-.58v-.44h.93v1.24h1.21v.89h-1.21v2.81c0 .18.026.336.08.47.06.133.156.24.29.32.133.073.31.11.53.11.046 0 .103-.004.17-.01l.2-.02v.82c-.087.02-.184.033-.29.04-.107.013-.197.02-.27.02Zm-9.212-.06-1.85-5.39h1.03l1.47 4.51-.36-.01 1.44-4.5h.88l1.44 4.5-.36.01 1.48-4.51h1.02l-1.85 5.39h-.89l-1.42-4.5h.28l-1.42 4.5h-.89Zm-5.126.12c-.52 0-.99-.12-1.41-.36a2.752 2.752 0 0 1-1-1.01 2.851 2.851 0 0 1-.37-1.45c0-.54.12-1.02.36-1.44a2.75 2.75 0 0 1 2.42-1.37c.52 0 .99.123 1.41.37.42.24.75.57.99.99.247.42.37.903.37 1.45a2.8 2.8 0 0 1-.38 1.46c-.253.42-.59.753-1.01 1-.413.24-.873.36-1.38.36Zm0-.9a1.725 1.725 0 0 0 1.54-.94c.16-.294.24-.62.24-.98 0-.367-.08-.69-.24-.97a1.731 1.731 0 0 0-.64-.68 1.607 1.607 0 0 0-.9-.26c-.34 0-.646.086-.92.26-.266.166-.48.393-.64.68-.16.28-.24.603-.24.97 0 .36.08.686.24.98.16.293.374.523.64.69.274.166.58.25.92.25Zm-6.056.78v-5.39h.91v.99l-.1-.14c.127-.307.32-.533.58-.68.26-.153.577-.23.95-.23h.33v.88h-.47c-.38 0-.686.12-.92.36-.233.233-.35.567-.35 1v3.21h-.93Zm-4.021 2.2c-.38 0-.734-.06-1.06-.18a2.535 2.535 0 0 1-.83-.5c-.227-.207-.4-.45-.52-.73l.87-.4c.093.253.27.466.53.64.266.18.6.27 1 .27.306 0 .583-.06.83-.18.253-.114.453-.287.6-.52.146-.227.22-.504.22-.83v-1.21l.17.18a1.945 1.945 0 0 1-.81.84c-.347.193-.73.29-1.15.29-.507 0-.96-.117-1.36-.35-.4-.24-.714-.564-.94-.97a2.8 2.8 0 0 1-.34-1.37c0-.507.113-.964.34-1.37.226-.407.536-.727.93-.96.4-.24.853-.36 1.36-.36.42 0 .8.096 1.14.29.346.186.623.446.83.78l-.14.25v-1.2h.91v5.16c0 .466-.11.883-.33 1.25a2.3 2.3 0 0 1-.92.86c-.387.213-.83.32-1.33.32Zm-.07-3.23c.32 0 .606-.08.86-.24.26-.16.466-.374.62-.64.153-.274.23-.577.23-.91a1.81 1.81 0 0 0-.85-1.55c-.254-.16-.54-.24-.86-.24a1.725 1.725 0 0 0-1.52.89c-.147.266-.22.566-.22.9 0 .333.073.636.22.91.153.266.36.48.62.64.266.16.566.24.9.24Zm-7.406 1.15c-.54 0-1.01-.134-1.41-.4a2.162 2.162 0 0 1-.85-1.08l.74-.36c.153.32.363.573.63.76.266.186.563.28.89.28.293 0 .536-.07.73-.21a.65.65 0 0 0 .29-.55.514.514 0 0 0-.14-.38.861.861 0 0 0-.32-.23 1.889 1.889 0 0 0-.35-.13l-.81-.23c-.487-.14-.844-.34-1.07-.6-.22-.26-.33-.564-.33-.91 0-.32.08-.597.24-.83.166-.24.39-.427.67-.56.286-.134.606-.2.96-.2a2.3 2.3 0 0 1 1.27.36c.38.24.65.576.81 1.01l-.76.35c-.12-.28-.3-.5-.54-.66-.24-.167-.51-.25-.81-.25-.274 0-.49.07-.65.21a.634.634 0 0 0-.24.51c0 .153.04.28.12.38.08.093.176.166.29.22.113.046.223.086.33.12l.88.26c.44.126.78.323 1.02.59.246.266.37.586.37.96 0 .3-.084.57-.25.81-.167.24-.397.426-.69.56-.294.133-.634.2-1.02.2Zm-5.593 0c-.52 0-.983-.124-1.39-.37a2.641 2.641 0 0 1-.96-1.01 3.016 3.016 0 0 1-.35-1.45c0-.54.113-1.02.34-1.44.233-.42.547-.75.94-.99a2.5 2.5 0 0 1 1.34-.37c.4 0 .753.073 1.06.22.313.14.577.333.79.58.22.24.387.516.5.83.12.306.18.626.18.96 0 .073-.007.156-.02.25-.007.086-.017.17-.03.25h-4.42v-.8h3.88l-.44.36c.06-.347.027-.657-.1-.93a1.515 1.515 0 0 0-1.4-.89c-.313 0-.6.08-.86.24-.26.16-.463.39-.61.69-.14.293-.197.643-.17 1.05-.027.393.033.74.18 1.04.153.293.367.523.64.69.28.16.583.24.91.24.36 0 .663-.084.91-.25.247-.167.447-.38.6-.64l.78.4a2.003 2.003 0 0 1-.5.68c-.22.2-.483.36-.79.48a2.7 2.7 0 0 1-1.01.18Zm-4.853-.12v-7.57h.93v7.57h-.93Zm-4.172.12c-.353 0-.667-.064-.94-.19a1.62 1.62 0 0 1-.63-.54c-.153-.234-.23-.5-.23-.8 0-.287.06-.544.18-.77.127-.234.32-.43.58-.59.267-.16.6-.274 1-.34l2-.33v.78l-1.79.3c-.347.06-.6.17-.76.33a.82.82 0 0 0-.23.59c0 .22.087.403.26.55.18.146.403.22.67.22.34 0 .633-.07.88-.21.253-.147.45-.344.59-.59.147-.247.22-.52.22-.82v-1.37c0-.294-.11-.53-.33-.71-.213-.187-.497-.28-.85-.28-.307 0-.58.08-.82.24-.233.153-.407.36-.52.62l-.81-.42c.1-.247.26-.467.48-.66.22-.2.477-.357.77-.47.293-.114.6-.17.92-.17.413 0 .777.08 1.09.24.313.153.557.37.73.65.18.273.27.593.27.96v3.66h-.91v-1.02l.17.06c-.113.213-.267.4-.46.56-.193.16-.42.286-.68.38-.26.093-.543.14-.85.14Zm-5.228 0a3.19 3.19 0 0 1-1.3-.26 2.984 2.984 0 0 1-1-.73 2.796 2.796 0 0 1-.59-1.03l.85-.35c.18.48.446.85.8 1.11.36.253.78.38 1.26.38.293 0 .55-.047.77-.14.22-.094.39-.224.51-.39a.997.997 0 0 0 .19-.6c0-.314-.09-.56-.27-.74-.174-.187-.43-.327-.77-.42l-1.37-.42c-.54-.167-.954-.43-1.24-.79a1.934 1.934 0 0 1-.43-1.24c0-.407.096-.764.29-1.07.2-.314.473-.557.82-.73.353-.18.753-.27 1.2-.27.446 0 .85.08 1.21.24.366.16.676.376.93.65.253.266.44.573.56.92l-.84.35c-.16-.42-.4-.737-.72-.95-.32-.22-.697-.33-1.13-.33-.267 0-.504.046-.71.14-.2.086-.357.216-.47.39-.107.166-.16.366-.16.6 0 .273.086.516.26.73.173.213.436.376.79.49l1.25.37c.586.18 1.03.436 1.33.77.3.333.45.746.45 1.24 0 .406-.107.766-.32 1.08a2.12 2.12 0 0 1-.87.74c-.367.173-.794.26-1.28.26Z"/><path fill="#164CFF" d="M28.5 343a4.5 4.5 0 0 0-4.5 4.499v.002a4.5 4.5 0 0 0 9 0v-.002A4.5 4.5 0 0 0 28.5 343Z"/><path fill="#000" d="M38.464 350.948v-6.107H36.61v-.839h4.586v.839h-1.825v6.107h-.908Zm5.202.112c-.478 0-.909-.112-1.294-.335a2.54 2.54 0 0 1-.917-.942 2.687 2.687 0 0 1-.34-1.352c0-.504.11-.951.33-1.343.226-.394.55-.72.94-.944.39-.225.832-.34 1.28-.333.477 0 .908.115 1.294.345.386.223.687.531.909.923.225.391.339.842.339 1.352 0 .51-.117.964-.349 1.361a2.628 2.628 0 0 1-.927.933c-.378.223-.8.335-1.265.335Zm0-.839c.293.001.58-.08.829-.235a1.6 1.6 0 0 0 .584-.642c.145-.272.219-.578.219-.913 0-.342-.072-.644-.22-.905a1.626 1.626 0 0 0-.587-.634 1.47 1.47 0 0 0-.826-.242c-.31 0-.592.081-.843.242a1.722 1.722 0 0 0-.586.634c-.15.277-.227.589-.22.905 0 .335.073.641.22.913.145.274.341.489.586.644.252.156.534.233.844.233Zm5.572.783c-.483 0-.856-.14-1.119-.419-.257-.28-.385-.674-.385-1.185v-2.648h-.899v-.83h.184a.667.667 0 0 0 .672-.456.759.759 0 0 0 .043-.29v-.41h.853v1.156h1.11v.83h-1.11v2.62c-.003.15.022.299.073.439a.655.655 0 0 0 .266.298 1 1 0 0 0 .486.103c.114-.006.227-.015.34-.028v.764c-.08.019-.169.032-.266.038a2.051 2.051 0 0 1-.248.018Zm3.014.056a1.988 1.988 0 0 1-.862-.177 1.47 1.47 0 0 1-.578-.504 1.338 1.338 0 0 1-.21-.745c0-.267.055-.506.165-.718.126-.228.31-.418.531-.551a2.6 2.6 0 0 1 .918-.317l1.834-.307v.727l-1.642.28c-.317.056-.55.158-.697.307a.774.774 0 0 0-.21.551c0 .205.08.376.238.512a.924.924 0 0 0 .614.206c.312 0 .581-.066.807-.196.233-.137.413-.32.542-.55.134-.23.201-.485.201-.765v-1.277a.828.828 0 0 0-.302-.663c-.195-.173-.456-.261-.78-.261a1.31 1.31 0 0 0-.733.214 1.337 1.337 0 0 0-.496.588l-.743-.391a1.64 1.64 0 0 1 .44-.616 2.31 2.31 0 0 1 1.55-.596c.379 0 .712.074 1 .223.287.144.51.345.67.606.165.256.247.554.247.896v3.412h-.834v-.951l.156.056a1.697 1.697 0 0 1-.422.522 2.06 2.06 0 0 1-.624.355 2.25 2.25 0 0 1-.78.13Zm3.826-.112v-7.058h.854v7.058h-.854Zm3.763 1.865v-6.891h.834v1.082l-.11-.214c.184-.299.434-.534.753-.709.317-.18.68-.27 1.09-.27a2.3 2.3 0 0 1 1.248.345c.373.23.666.544.88.941.214.392.322.839.322 1.343 0 .492-.108.936-.321 1.333a2.436 2.436 0 0 1-.88.942 2.307 2.307 0 0 1-1.257.345c-.398 0-.761-.09-1.092-.27a1.87 1.87 0 0 1-.752-.765l.138-.149v2.937h-.853Zm2.495-2.592c.29.005.576-.073.825-.227.248-.153.449-.375.578-.64.14-.273.21-.578.21-.914a1.91 1.91 0 0 0-.21-.914 1.58 1.58 0 0 0-.569-.634 1.484 1.484 0 0 0-.834-.242 1.574 1.574 0 0 0-.844.233c-.247.159-.45.381-.587.643a1.931 1.931 0 0 0-.211.914c0 .336.07.641.21.914.147.268.343.479.588.634.25.156.532.233.844.233Zm3.64.727v-5.026h.834v.924l-.091-.131a1.24 1.24 0 0 1 .531-.634c.267-.15.568-.224.872-.215h.302v.821h-.43c-.35 0-.63.112-.844.336-.214.218-.322.529-.322.932v2.993h-.852Zm5.554.112c-.477 0-.908-.112-1.293-.335a2.54 2.54 0 0 1-.917-.942 2.688 2.688 0 0 1-.34-1.352c0-.504.11-.951.33-1.343.226-.394.55-.72.94-.944.39-.225.832-.34 1.28-.333.477 0 .908.115 1.293.345.386.223.688.531.908.923.227.391.34.842.34 1.352 0 .51-.116.964-.349 1.361a2.625 2.625 0 0 1-.926.933c-.378.223-.8.335-1.266.335Zm0-.839c.292.001.58-.08.828-.235.25-.155.452-.377.585-.642.146-.272.22-.578.22-.913 0-.342-.074-.644-.22-.905a1.629 1.629 0 0 0-.587-.634 1.47 1.47 0 0 0-.826-.242 1.53 1.53 0 0 0-.844.242 1.718 1.718 0 0 0-.587.634c-.15.277-.226.589-.22.905 0 .335.074.641.22.913.147.274.343.489.587.644.251.156.532.233.844.233Zm4.024.727v-4.196h-.944v-.83h.944v-.354c0-.36.076-.664.23-.914.158-.248.366-.438.623-.569.264-.13.554-.195.872-.195.067 0 .14.007.22.018.086.007.156.017.21.028v.774a.729.729 0 0 0-.174-.018 1.63 1.63 0 0 0-.156-.01c-.282 0-.513.069-.697.205-.177.138-.266.364-.266.681v.354h2.569v.83h-2.569v4.196h-.862Zm2.899 0v-5.026h.862v5.026h-.862Zm4.05.056c-.481 0-.855-.14-1.119-.419-.257-.28-.385-.674-.385-1.185v-2.648H80.1v-.83h.184a.667.667 0 0 0 .671-.456.759.759 0 0 0 .044-.29v-.41h.853v1.156h1.11v.83h-1.11v2.62c0 .168.025.315.073.439a.655.655 0 0 0 .266.298c.151.075.318.11.486.103.114-.006.227-.015.34-.028v.764a1.59 1.59 0 0 1-.266.038 2.051 2.051 0 0 1-.248.018Zm3.214 1.809v-6.891h.834v1.082l-.11-.214a1.99 1.99 0 0 1 .752-.709c.318-.18.682-.27 1.092-.27a2.3 2.3 0 0 1 1.247.345c.373.23.666.544.88.941.215.392.322.839.322 1.343 0 .492-.107.936-.322 1.333a2.432 2.432 0 0 1-.88.942 2.307 2.307 0 0 1-1.257.345c-.397 0-.76-.09-1.09-.27a1.87 1.87 0 0 1-.753-.765l.138-.149v2.937h-.853Zm2.494-2.592c.291.005.577-.073.826-.227.248-.153.448-.375.578-.64.143-.283.215-.596.21-.914 0-.347-.07-.653-.21-.914a1.58 1.58 0 0 0-.57-.634 1.484 1.484 0 0 0-.834-.242 1.574 1.574 0 0 0-.843.233c-.248.159-.45.381-.587.643a1.931 1.931 0 0 0-.212.914c0 .336.07.641.212.914.146.268.342.479.587.634.25.156.532.233.843.233Zm5.916.839a2.37 2.37 0 0 1-1.275-.345 2.435 2.435 0 0 1-.88-.942 2.839 2.839 0 0 1-.321-1.352c0-.503.103-.951.312-1.342.202-.38.5-.698.862-.923.367-.23.776-.345 1.229-.345.47-.01.933.131 1.32.404s.68.663.835 1.115c.11.287.165.586.165.896 0 .068-.007.146-.018.233a3.547 3.547 0 0 1-.028.233h-4.054v-.746h3.559l-.403.335a1.46 1.46 0 0 0-.092-.867 1.408 1.408 0 0 0-.52-.61 1.374 1.374 0 0 0-.764-.22 1.459 1.459 0 0 0-1.349.868c-.128.274-.18.6-.156.979-.025.367.03.69.166.969.14.274.335.489.587.644.256.149.534.224.834.224.33 0 .608-.077.835-.234.225-.154.413-.358.55-.596l.716.373a1.858 1.858 0 0 1-.459.634 2.428 2.428 0 0 1-1.65.615Zm3.36-.112v-5.026h.834v.924l-.092-.131c.1-.267.288-.491.532-.634.239-.142.529-.215.871-.215h.303v.821h-.431c-.349 0-.63.112-.844.336-.214.218-.32.529-.32.932v2.993h-.854Zm7.037.112a2.34 2.34 0 0 1-1.256-.345 2.46 2.46 0 0 1-.871-.942 2.757 2.757 0 0 1-.321-1.333c0-.504.107-.951.321-1.343a2.47 2.47 0 0 1 .871-.941 2.343 2.343 0 0 1 1.256-.345c.411 0 .774.09 1.092.27.319.175.568.41.752.709l-.138.214v-3.114h.862v7.058h-.834v-1.072l.11.149a1.797 1.797 0 0 1-.752.765c-.323.18-.688.27-1.092.27Zm.074-.839c.312 0 .59-.077.834-.233.246-.155.438-.366.578-.634.147-.273.22-.578.22-.914 0-.342-.073-.646-.22-.914a1.566 1.566 0 0 0-.581-.647 1.526 1.526 0 0 0-.831-.229c-.305 0-.584.081-.835.242a1.664 1.664 0 0 0-.578.634 1.919 1.919 0 0 0-.211.914c0 .336.071.641.211.914.141.268.334.479.578.634.245.156.523.233.835.233Zm5.264.839a1.99 1.99 0 0 1-.862-.177 1.471 1.471 0 0 1-.578-.504 1.342 1.342 0 0 1-.211-.745c0-.267.055-.506.166-.718.115-.217.293-.401.531-.551.245-.149.551-.254.918-.317l1.834-.307v.727l-1.642.28c-.317.056-.55.158-.697.307a.787.787 0 0 0-.211.551c0 .205.079.376.239.512a.928.928 0 0 0 .614.206c.312 0 .581-.066.807-.196.233-.137.413-.32.541-.55.135-.23.202-.485.202-.765v-1.277a.83.83 0 0 0-.302-.663c-.196-.173-.456-.261-.78-.261a1.31 1.31 0 0 0-1.229.802l-.743-.391c.092-.23.239-.435.44-.616a2.315 2.315 0 0 1 1.55-.596c.38 0 .712.074 1 .223.288.144.51.345.67.606.165.256.247.554.247.896v3.412h-.834v-.951l.156.056a1.734 1.734 0 0 1-.422.522 2.07 2.07 0 0 1-.624.355 2.254 2.254 0 0 1-.78.13Zm4.093 1.94c-.11 0-.22-.01-.33-.028a1.275 1.275 0 0 1-.312-.094v-.773a4.4 4.4 0 0 0 .248.037c.103.018.204.028.303.028.286 0 .504-.065.651-.196.152-.124.295-.342.431-.653l.312-.755-.019.755-2.109-5.399h.926l1.642 4.29h-.275l1.632-4.29H118l-2.229 5.623a2.946 2.946 0 0 1-.403.727 1.8 1.8 0 0 1-.587.532 1.667 1.667 0 0 1-.826.196Z"/><path fill="#F5F6FA" d="M295.489 343h-.001a4.493 4.493 0 0 0-4.488 4.499v.002a4.493 4.493 0 0 0 4.488 4.499h.001a4.494 4.494 0 0 0 4.489-4.499v-.002a4.494 4.494 0 0 0-4.489-4.499Z"/><path fill="#000" d="M304.095 350.592v-6.635h4.32v.801h-3.423v2.147h3.102v.801h-3.102v2.886h-.897Zm7.427.107a2.62 2.62 0 0 1-1.291-.32 2.47 2.47 0 0 1-1.253-2.192c0-.481.109-.908.329-1.282.225-.377.548-.688.937-.903.39-.214.831-.324 1.278-.317.476 0 .906.11 1.29.329.385.214.687.508.906.882.226.374.339.805.339 1.291 0 .488-.117.921-.348 1.301a2.517 2.517 0 0 1-2.187 1.211Zm0-.801c.304 0 .579-.074.823-.223.25-.148.445-.353.586-.615.147-.26.22-.552.22-.873 0-.326-.073-.614-.22-.864a1.59 1.59 0 0 0-.586-.605 1.518 1.518 0 0 0-.823-.232c-.311 0-.593.078-.842.232a1.685 1.685 0 0 0-.806 1.469c0 .321.074.613.22.873.147.262.341.467.586.615.249.149.531.223.842.223Zm3.644.694v-4.801h.833v.882l-.091-.124c.1-.256.287-.469.531-.606.237-.136.527-.205.869-.205h.302v.784h-.43c-.348 0-.628.107-.842.32-.214.209-.32.506-.32.891v2.859h-.852Zm5.917 0-1.693-4.801h.943l1.345 4.018-.33-.009 1.318-4.009h.806l1.317 4.009-.329.009 1.354-4.018h.934l-1.693 4.801h-.815l-1.299-4.008h.256l-1.3 4.008h-.814Zm8.606.107c-.476 0-.9-.109-1.272-.329a2.38 2.38 0 0 1-.879-.9 2.618 2.618 0 0 1-.32-1.291c0-.481.104-.909.311-1.283.214-.374.5-.668.86-.882a2.344 2.344 0 0 1 1.227-.329c.366 0 .69.065.97.195.287.125.527.298.723.517.201.214.353.461.457.739.11.274.165.559.165.855 0 .066-.006.141-.018.223a2.154 2.154 0 0 1-.028.223h-4.045v-.713h3.551l-.403.321a1.333 1.333 0 0 0-.61-1.412 1.405 1.405 0 0 0-.762-.209c-.287 0-.549.071-.787.214a1.459 1.459 0 0 0-.559.614c-.128.262-.179.574-.155.935-.024.351.031.66.165.927.14.261.335.466.585.614.257.143.535.214.833.214.33 0 .608-.073.833-.222.225-.148.412-.343.549-.571l.714.357a1.76 1.76 0 0 1-.458.605c-.212.185-.457.33-.723.428-.274.107-.582.16-.924.16Zm5.621 0c-.476 0-.9-.109-1.272-.329a2.377 2.377 0 0 1-.878-.9 2.62 2.62 0 0 1-.321-1.291c0-.481.105-.909.312-1.283.214-.374.499-.668.86-.882a2.34 2.34 0 0 1 1.226-.329c.366 0 .69.065.97.195.287.125.528.298.723.517.202.214.354.461.458.739.11.274.165.559.165.855 0 .066-.006.141-.019.223a2.16 2.16 0 0 1-.027.223h-4.045v-.713h3.551l-.403.321a1.34 1.34 0 0 0-.61-1.412 1.41 1.41 0 0 0-.763-.209c-.287 0-.549.071-.787.214a1.456 1.456 0 0 0-.558.614c-.128.262-.18.574-.156.935-.024.351.031.66.165.927.141.261.335.466.586.614.256.143.534.214.833.214.329 0 .607-.073.832-.222.225-.148.413-.343.549-.571l.714.357a1.77 1.77 0 0 1-.457.605c-.212.185-.457.33-.723.428-.275.107-.583.16-.925.16Zm3.352-.107v-6.742h.851v4.622l-.347-.08 2.617-2.601h1.089l-1.894 1.933 2.022 2.868h-1.007l-1.848-2.601.531-.026-1.437 1.461.274-.606v1.772h-.851Z"/><path fill="#16BAFF" d="M28.485 363h-.002A4.491 4.491 0 0 0 24 367.499v.002A4.491 4.491 0 0 0 28.483 372h.002a4.491 4.491 0 0 0 4.483-4.499v-.002A4.491 4.491 0 0 0 28.484 363Z"/><path fill="#000" d="m36.231 371.04 2.44-6.636h1.061l2.441 6.636h-.96l-.557-1.559h-2.907l-.558 1.559h-.96Zm1.801-2.361h2.34l-1.298-3.643h.256l-1.298 3.643Zm5.994 2.361-1.93-4.801h.951l1.545 4.061h-.329l1.554-4.061h.951l-1.938 4.801h-.804Zm5.681.107a2.384 2.384 0 0 1-2.148-1.23 2.624 2.624 0 0 1-.32-1.291c0-.481.103-.909.31-1.283.202-.362.499-.667.86-.882a2.33 2.33 0 0 1 1.225-.329c.366 0 .688.064.97.196.285.124.526.296.721.516.201.214.353.46.457.74.11.272.165.557.165.855 0 .064-.007.139-.018.222a2.561 2.561 0 0 1-.028.223h-4.04v-.712h3.547l-.403.32a1.339 1.339 0 0 0-.091-.828 1.363 1.363 0 0 0-.519-.582 1.414 1.414 0 0 0-.76-.211c-.288 0-.55.071-.787.214a1.455 1.455 0 0 0-.558.614c-.128.261-.18.573-.155.936-.025.349.03.659.164.926.14.261.335.465.585.615.256.142.533.213.832.213.33 0 .606-.074.832-.222a1.8 1.8 0 0 0 .549-.57l.713.356a1.793 1.793 0 0 1-.457.606 2.333 2.333 0 0 1-.723.427 2.526 2.526 0 0 1-.923.161Zm3.348-.107v-4.801h.832v.881l-.091-.124a1.19 1.19 0 0 1 .53-.606c.238-.137.527-.205.869-.205h.301v.784h-.43c-.347 0-.628.107-.84.321-.214.207-.32.504-.32.89v2.86h-.85Zm4.64.107a2.071 2.071 0 0 1-.858-.17 1.467 1.467 0 0 1-.576-.481 1.243 1.243 0 0 1-.21-.712c0-.256.054-.485.164-.686a1.42 1.42 0 0 1 .53-.526c.244-.142.549-.243.914-.302l1.829-.294v.694l-1.637.268c-.317.053-.548.151-.694.294a.713.713 0 0 0-.21.525.61.61 0 0 0 .237.49.955.955 0 0 0 .613.196c.31 0 .578-.062.804-.187a1.42 1.42 0 0 0 .54-.526c.133-.22.2-.463.2-.73v-1.22a.778.778 0 0 0-.302-.633c-.195-.167-.454-.249-.776-.249a1.342 1.342 0 0 0-.73.204c-.219.136-.39.331-.495.562l-.74-.374c.09-.221.237-.417.438-.588.425-.37.976-.573 1.545-.57.377 0 .709.071.997.214.285.135.508.329.667.579.164.242.247.527.247.855v3.26h-.832v-.909l.155.054a1.677 1.677 0 0 1-.42.498 2.063 2.063 0 0 1-.622.339c-.25.085-.514.127-.778.125Zm6.164 1.852a2.85 2.85 0 0 1-.97-.16 2.35 2.35 0 0 1-.758-.445 1.871 1.871 0 0 1-.475-.651l.795-.356c.085.225.247.415.484.57.244.16.549.241.914.241.282 0 .534-.054.76-.161.231-.101.414-.256.548-.463.14-.222.21-.479.2-.739v-1.078l.156.16a1.75 1.75 0 0 1-.74.749 2.17 2.17 0 0 1-1.051.258 2.48 2.48 0 0 1-1.244-.312 2.324 2.324 0 0 1-.86-.864 2.445 2.445 0 0 1-.31-1.22 2.4 2.4 0 0 1 .31-1.22c.208-.363.492-.648.851-.856.366-.213.78-.32 1.243-.32.384 0 .732.086 1.043.258.317.166.57.398.758.695l-.128.223v-1.069h.832v4.596c0 .415-.1.786-.301 1.113a2.078 2.078 0 0 1-.841.766 2.53 2.53 0 0 1-1.216.285Zm-.064-2.877c.292 0 .555-.071.786-.214.235-.14.43-.336.567-.57.14-.243.21-.514.21-.81a1.577 1.577 0 0 0-.203-.79 1.632 1.632 0 0 0-.574-.591 1.476 1.476 0 0 0-.786-.214 1.61 1.61 0 0 0-.806.212c-.245.139-.446.34-.584.581a1.6 1.6 0 0 0-.201.802c0 .296.067.567.201.81.14.238.33.428.567.57a1.6 1.6 0 0 0 .823.214Zm6.008 1.025a2.385 2.385 0 0 1-2.148-1.23 2.624 2.624 0 0 1-.32-1.291c0-.481.103-.909.31-1.283a2.37 2.37 0 0 1 .86-.882 2.33 2.33 0 0 1 1.225-.329c.366 0 .688.064.969.196.286.124.526.296.722.516.201.214.353.46.457.74.11.272.165.557.165.855 0 .064-.007.139-.018.222a2.45 2.45 0 0 1-.028.223h-4.04v-.712h3.547l-.403.32a1.338 1.338 0 0 0-.091-.828 1.363 1.363 0 0 0-.519-.582 1.414 1.414 0 0 0-.761-.211c-.287 0-.549.071-.786.214a1.455 1.455 0 0 0-.558.614c-.128.261-.18.573-.155.936-.025.349.03.659.164.926.14.261.335.465.585.615.256.142.533.213.832.213.33 0 .606-.074.832-.222a1.8 1.8 0 0 0 .549-.57l.713.356a1.792 1.792 0 0 1-.457.606 2.333 2.333 0 0 1-.723.427 2.525 2.525 0 0 1-.923.161Zm6.692 0c-.493 0-.923-.12-1.288-.357a1.938 1.938 0 0 1-.777-.962l.675-.32c.14.285.333.51.576.677.245.165.516.249.815.249.237.009.471-.057.667-.187a.569.569 0 0 0 .265-.49.445.445 0 0 0-.129-.338.77.77 0 0 0-.291-.205 1.728 1.728 0 0 0-.32-.116l-.74-.205c-.446-.125-.772-.303-.979-.534a1.2 1.2 0 0 1-.302-.811c0-.285.073-.532.219-.739.156-.217.367-.389.614-.499.275-.122.574-.183.876-.178.434 0 .82.107 1.161.32.347.214.594.514.74.9l-.694.312a1.314 1.314 0 0 0-.493-.588 1.288 1.288 0 0 0-.74-.223c-.252 0-.448.063-.594.187a.555.555 0 0 0-.22.455c0 .135.036.249.11.338a.798.798 0 0 0 .264.196c.104.041.206.077.302.107l.805.232c.402.112.713.287.933.525.225.237.338.522.338.855 0 .267-.077.508-.229.722-.16.219-.377.391-.63.498a2.3 2.3 0 0 1-.934.179Zm4.35 0c-.323 0-.61-.057-.86-.17a1.467 1.467 0 0 1-.576-.481 1.243 1.243 0 0 1-.21-.712c0-.256.054-.485.164-.686.117-.208.293-.383.53-.526a2.66 2.66 0 0 1 .915-.302l1.828-.294v.694l-1.636.268c-.317.053-.549.151-.695.294a.713.713 0 0 0-.21.525c0 .196.08.359.237.49a.955.955 0 0 0 .613.196c.31 0 .579-.062.804-.187a1.42 1.42 0 0 0 .54-.526c.134-.22.2-.463.2-.73v-1.22a.78.78 0 0 0-.302-.633c-.193-.167-.453-.249-.776-.249a1.342 1.342 0 0 0-.73.204c-.218.136-.39.331-.495.562l-.74-.374c.09-.221.237-.417.438-.588.425-.37.976-.573 1.545-.57.378 0 .71.071.997.214.286.135.51.329.667.579.164.242.247.527.247.855v3.26h-.832v-.909l.155.054a1.642 1.642 0 0 1-.42.498 2.063 2.063 0 0 1-.622.339c-.25.085-.512.127-.777.125Zm3.814-.107v-6.743h.85v6.743h-.85Zm4.436.107a2.46 2.46 0 0 1-1.271-.33 2.385 2.385 0 0 1-.878-.9 2.623 2.623 0 0 1-.32-1.291c0-.481.104-.909.311-1.283.214-.374.5-.668.86-.882.365-.22.774-.329 1.224-.329.366 0 .69.064.97.196.286.124.527.296.722.516.2.214.354.46.457.74.11.272.164.557.164.855a1.5 1.5 0 0 1-.018.222 2.486 2.486 0 0 1-.027.223h-4.041v-.712h3.547l-.402.32a1.34 1.34 0 0 0-.092-.828 1.363 1.363 0 0 0-.519-.582 1.414 1.414 0 0 0-.76-.211 1.46 1.46 0 0 0-1.344.828c-.128.261-.18.573-.156.936-.023.349.031.659.165.926.14.261.336.465.585.615.256.142.533.213.832.213.329 0 .606-.074.832-.222.226-.149.409-.339.548-.57l.713.356a1.794 1.794 0 0 1-.457.606 2.32 2.32 0 0 1-.722.427 2.522 2.522 0 0 1-.923.161Zm5.113 0a2.317 2.317 0 0 1-1.29-.357 1.939 1.939 0 0 1-.777-.962l.676-.32c.141.285.333.51.577.677.244.165.515.249.814.249.237.009.471-.057.668-.187a.569.569 0 0 0 .265-.49.445.445 0 0 0-.13-.338.77.77 0 0 0-.29-.205 1.728 1.728 0 0 0-.32-.116l-.741-.205c-.446-.125-.772-.303-.978-.534a1.2 1.2 0 0 1-.303-.811c0-.285.073-.532.22-.739a1.51 1.51 0 0 1 .613-.499c.275-.122.574-.183.876-.178.434 0 .82.107 1.161.32.348.214.595.514.74.9l-.694.312a1.314 1.314 0 0 0-.493-.588 1.288 1.288 0 0 0-.74-.223c-.251 0-.448.063-.594.187a.557.557 0 0 0-.22.455c0 .135.036.249.11.338a.798.798 0 0 0 .264.196c.104.041.206.077.302.107l.805.232c.403.112.713.287.933.525.225.237.338.522.338.855 0 .267-.076.508-.228.722-.16.219-.378.391-.631.498a2.295 2.295 0 0 1-.933.179ZM295.506 363h-.001a4.502 4.502 0 0 0-4.505 4.499v.002a4.502 4.502 0 0 0 4.505 4.499h.001a4.502 4.502 0 0 0 4.505-4.499v-.002a4.502 4.502 0 0 0-4.505-4.499Zm8.638 8.04v-6.636h2.416c.454 0 .852.082 1.194.249.344.166.61.403.8.713.196.308.294.67.294 1.086 0 .416-.098.778-.294 1.087-.193.305-.47.552-.8.713-.336.166-.735.249-1.194.249h-1.515v2.539h-.901Zm.901-3.341h1.543c.275 0 .514-.051.716-.151.198-.097.361-.249.469-.436.11-.191.165-.41.165-.66a1.26 1.26 0 0 0-.165-.659 1.086 1.086 0 0 0-.469-.436 1.578 1.578 0 0 0-.716-.152h-1.543v2.494Zm4.92 3.341v-4.801h.836v.881l-.092-.124c.116-.274.294-.476.533-.606.238-.137.529-.205.872-.205h.303v.784h-.431c-.349 0-.632.107-.845.321-.215.207-.322.504-.322.89v2.86h-.854Zm5.563.107c-.478 0-.909-.107-1.295-.321a2.47 2.47 0 0 1-1.259-2.191c0-.481.111-.909.331-1.283.225-.377.549-.689.94-.904a2.58 2.58 0 0 1 1.283-.316c.478 0 .909.109 1.295.329.386.214.689.508.91.882.226.374.339.804.339 1.292 0 .486-.117.919-.349 1.3a2.58 2.58 0 0 1-.927.891 2.547 2.547 0 0 1-1.268.321Zm0-.802a1.586 1.586 0 0 0 1.415-.837c.147-.262.22-.553.22-.873 0-.328-.073-.615-.22-.864a1.577 1.577 0 0 0-.588-.606 1.523 1.523 0 0 0-.827-.232c-.312 0-.595.077-.845.232-.253.158-.46.376-.601.633a1.658 1.658 0 0 0-.207.837c0 .32.073.611.22.873.147.26.342.465.588.614.25.148.533.223.845.223Zm4.029.695v-4.009h-.946v-.792h.946v-.339c0-.345.077-.636.23-.873.159-.238.367-.418.624-.543a2.01 2.01 0 0 1 .873-.187c.068 0 .141.005.221.018.086.005.156.014.211.026v.74a.733.733 0 0 0-.175-.018 1.36 1.36 0 0 0-.156-.009c-.281 0-.514.065-.698.196-.178.13-.266.347-.266.65v.339h2.572v.792h-2.572v4.009h-.864Zm2.903 0v-4.801h.863v4.801h-.863Zm4.058.053c-.485 0-.858-.133-1.121-.401-.257-.267-.386-.644-.386-1.131v-2.53h-.9v-.792h.184a.7.7 0 0 0 .523-.196.704.704 0 0 0 .193-.517v-.392h.855v1.105h1.111v.792h-1.111v2.503c0 .161.024.3.073.419.056.12.149.219.267.285.151.071.318.105.486.098.043 0 .095-.003.157-.009l.183-.018v.731a1.7 1.7 0 0 1-.266.035 2.053 2.053 0 0 1-.248.018Zm5.229 0c-.483 0-.857-.133-1.121-.401-.257-.267-.386-.644-.386-1.131v-2.53h-.9v-.792h.184a.714.714 0 0 0 .524-.196.707.707 0 0 0 .192-.517v-.392h.855v1.105h1.111v.792h-1.111v2.503c0 .161.025.3.073.419a.65.65 0 0 0 .267.285c.151.071.318.105.486.098.044 0 .096-.003.157-.009l.183-.018v.731a1.81 1.81 0 0 1-.266.035c-.098.011-.18.018-.248.018Zm3.848.054a2.62 2.62 0 0 1-1.295-.321 2.48 2.48 0 0 1-.919-.9 2.478 2.478 0 0 1-.34-1.291c0-.481.11-.909.331-1.283.225-.377.549-.689.94-.903a2.58 2.58 0 0 1 1.283-.317c.477 0 .909.109 1.295.329.386.214.689.508.909.882.227.374.34.804.34 1.292 0 .486-.116.919-.349 1.3a2.543 2.543 0 0 1-2.195 1.212Zm0-.802c.306 0 .582-.075.826-.223.252-.149.447-.354.588-.614.147-.262.221-.553.221-.873 0-.328-.074-.615-.221-.864a1.563 1.563 0 0 0-.588-.606 1.509 1.509 0 0 0-.826-.232c-.313 0-.594.077-.845.232-.253.158-.46.376-.602.633a1.679 1.679 0 0 0-.207.837c0 .32.074.611.221.873.147.26.343.465.588.614.251.148.532.223.845.223Zm5.91.802c-.466 0-.886-.111-1.259-.33a2.405 2.405 0 0 1-.872-.9 2.54 2.54 0 0 1-.322-1.273c0-.481.107-.909.322-1.283.203-.37.504-.68.872-.9.373-.22.793-.329 1.259-.329.41 0 .774.086 1.093.258.318.166.569.392.753.677l-.138.205v-2.975h.864v6.743h-.836v-1.025l.11.143a1.764 1.764 0 0 1-.753.73 2.3 2.3 0 0 1-1.093.259Zm.073-.802c.313 0 .59-.075.836-.223.245-.149.438-.35.579-.605.147-.262.22-.553.22-.873 0-.328-.073-.618-.22-.873a1.577 1.577 0 0 0-.579-.615 1.58 1.58 0 0 0-.836-.223 1.641 1.641 0 0 0-.827.229 1.575 1.575 0 0 0-.587.609 1.741 1.741 0 0 0-.212.873c0 .32.07.611.212.873.14.255.333.456.578.605.245.148.524.223.836.223Zm5.272.802c-.325 0-.612-.057-.864-.17a1.47 1.47 0 0 1-.578-.481 1.234 1.234 0 0 1-.212-.712c0-.256.055-.485.166-.686.116-.208.294-.383.532-.526.245-.142.552-.243.919-.302l1.837-.294v.694l-1.644.268c-.318.053-.551.151-.698.294a.7.7 0 0 0-.16.242.686.686 0 0 0-.051.283.61.61 0 0 0 .238.49.963.963 0 0 0 .616.196c.312 0 .582-.062.808-.187a1.42 1.42 0 0 0 .542-.526c.135-.22.202-.463.202-.73v-1.22a.747.747 0 0 0-.074-.351.782.782 0 0 0-.229-.282c-.196-.167-.456-.249-.781-.249-.281 0-.532.071-.753.214a1.248 1.248 0 0 0-.478.552l-.744-.374c.092-.221.239-.417.441-.588.427-.369.98-.573 1.553-.57.38 0 .713.071 1.001.214.288.135.511.329.671.579.165.242.248.527.248.855v3.26h-.836v-.909l.156.054a1.67 1.67 0 0 1-.423.498 2.1 2.1 0 0 1-.624.339 2.379 2.379 0 0 1-.781.125Zm4.099 1.852c-.11 0-.22-.009-.331-.026a1.464 1.464 0 0 1-.312-.089v-.74c.067.011.149.024.248.036.103.018.204.027.303.027.287 0 .505-.063.652-.188.153-.119.297-.327.432-.623l.312-.722-.018.722-2.113-5.157h.928l1.644 4.097h-.275l1.635-4.097H355l-2.232 5.371a2.88 2.88 0 0 1-.404.695 1.785 1.785 0 0 1-.588.507c-.255.13-.539.194-.827.187Z"/><path stroke="#3B3B3B" stroke-opacity=".12" stroke-width=".818" d="M355.337 41.028c0-5.538-4.654-10.028-10.395-10.028s-10.394 4.49-10.394 10.028c0 5.539 4.653 10.028 10.394 10.028 5.741 0 10.395-4.49 10.395-10.028Z"/><path stroke="#000" stroke-linecap="round" stroke-linejoin="round" stroke-width="1.091" d="m342.252 43.624 5.381-5.191m0 0h-3.588m3.588 0v3.46"/><path fill="#000" d="M30.987 47.24a6.661 6.661 0 0 1-2.64-.52 6.326 6.326 0 0 1-2.08-1.44 5.847 5.847 0 0 1-1.26-2.18l2.26-.98c.36.853.88 1.527 1.56 2.02.68.48 1.446.72 2.3.72.48 0 .893-.073 1.24-.22.36-.16.633-.373.82-.64.2-.267.3-.587.3-.96 0-.44-.134-.8-.4-1.08-.254-.293-.64-.52-1.16-.68l-2.86-.92c-1.16-.36-2.034-.9-2.62-1.62-.587-.72-.88-1.567-.88-2.54 0-.853.206-1.607.62-2.26.426-.653 1.013-1.16 1.76-1.52.76-.373 1.626-.56 2.6-.56.893 0 1.713.16 2.46.48.746.307 1.386.74 1.92 1.3a5.162 5.162 0 0 1 1.22 1.94l-2.24 1c-.294-.747-.734-1.32-1.32-1.72-.587-.413-1.267-.62-2.04-.62-.454 0-.854.08-1.2.24-.347.147-.62.36-.82.64-.187.267-.28.587-.28.96 0 .413.133.78.4 1.1.266.307.673.547 1.22.72l2.74.86c1.186.387 2.073.92 2.66 1.6.6.68.9 1.52.9 2.52 0 .853-.22 1.607-.66 2.26-.44.653-1.047 1.167-1.82 1.54-.774.373-1.674.56-2.7.56Zm10.611 0c-.76 0-1.42-.127-1.98-.38s-.993-.613-1.3-1.08c-.306-.48-.46-1.033-.46-1.66 0-.6.134-1.133.4-1.6.267-.48.68-.88 1.24-1.2.56-.32 1.267-.547 2.12-.68l3.56-.58v2l-3.06.52c-.52.093-.907.26-1.16.5-.253.24-.38.553-.38.94 0 .373.14.673.42.9.294.213.654.32 1.08.32.547 0 1.027-.113 1.44-.34a2.47 2.47 0 0 0 .98-.98c.24-.413.36-.867.36-1.36v-2.8c0-.467-.186-.853-.56-1.16-.36-.32-.84-.48-1.44-.48-.56 0-1.06.153-1.5.46a2.57 2.57 0 0 0-.94 1.18l-2.14-1.04a3.742 3.742 0 0 1 1-1.48 5.113 5.113 0 0 1 1.64-1 5.657 5.657 0 0 1 2.04-.36c.894 0 1.68.167 2.36.5.68.32 1.207.773 1.58 1.36.387.573.58 1.247.58 2.02V47h-2.48v-1.86l.56-.04c-.28.467-.613.86-1 1.18a4.51 4.51 0 0 1-1.32.72c-.493.16-1.04.24-1.64.24ZM49.9 47V31.86h2.62V47H49.9Zm10.199.24c-1.12 0-2.1-.253-2.94-.76a5.293 5.293 0 0 1-1.96-2.06c-.467-.867-.7-1.827-.7-2.88 0-1.093.233-2.06.7-2.9a5.43 5.43 0 0 1 1.94-2.02c.826-.493 1.746-.74 2.76-.74.853 0 1.6.14 2.24.42a4.79 4.79 0 0 1 1.66 1.16c.453.493.8 1.06 1.04 1.7.24.627.36 1.307.36 2.04a4.4 4.4 0 0 1-.04.58 1.9 1.9 0 0 1-.1.52h-8.4v-2h6.92l-1.24.94c.12-.613.086-1.16-.1-1.64a2.273 2.273 0 0 0-.88-1.14c-.4-.28-.887-.42-1.46-.42a2.6 2.6 0 0 0-1.46.42c-.427.267-.754.667-.98 1.2-.214.52-.294 1.153-.24 1.9-.054.667.033 1.26.26 1.78.24.507.586.9 1.04 1.18.466.28 1 .42 1.6.42.6 0 1.106-.127 1.52-.38.426-.253.76-.593 1-1.02l2.12 1.04c-.214.52-.547.98-1 1.38-.454.4-.994.713-1.62.94-.614.227-1.294.34-2.04.34Zm11.226 0c-1.16 0-2.174-.273-3.04-.82a4.278 4.278 0 0 1-1.76-2.26l1.96-.94c.28.613.666 1.093 1.16 1.44a2.91 2.91 0 0 0 1.68.52c.48 0 .86-.107 1.14-.32.28-.213.42-.493.42-.84a.748.748 0 0 0-.18-.52 1.157 1.157 0 0 0-.46-.36 2.884 2.884 0 0 0-.62-.26l-1.78-.5c-.92-.267-1.62-.673-2.1-1.22-.467-.547-.7-1.193-.7-1.94 0-.667.166-1.247.5-1.74.346-.507.82-.9 1.42-1.18.613-.28 1.313-.42 2.1-.42 1.026 0 1.933.247 2.72.74a4.058 4.058 0 0 1 1.68 2.08l-2 .94a2.41 2.41 0 0 0-.94-1.18 2.609 2.609 0 0 0-1.48-.44c-.44 0-.787.1-1.04.3-.254.2-.38.46-.38.78 0 .2.053.373.16.52.106.147.253.267.44.36.2.093.427.18.68.26l1.74.52c.893.267 1.58.667 2.06 1.2.493.533.74 1.187.74 1.96 0 .653-.173 1.233-.52 1.74-.347.493-.827.88-1.44 1.16-.614.28-1.334.42-2.16.42Zm15.008 0c-1.067 0-2.04-.247-2.92-.74a5.7 5.7 0 0 1-2.08-2.02c-.507-.853-.76-1.827-.76-2.92s.253-2.067.76-2.92a5.7 5.7 0 0 1 2.08-2.02c.867-.493 1.84-.74 2.92-.74 1.067 0 2.033.247 2.9.74a5.546 5.546 0 0 1 2.06 2.02c.52.84.78 1.813.78 2.92 0 1.093-.26 2.067-.78 2.92a5.701 5.701 0 0 1-2.08 2.02c-.867.493-1.827.74-2.88.74Zm0-2.4c.587 0 1.1-.14 1.54-.42a2.88 2.88 0 0 0 1.06-1.16 3.59 3.59 0 0 0 .4-1.7c0-.64-.133-1.2-.4-1.68a2.878 2.878 0 0 0-1.06-1.16c-.44-.293-.953-.44-1.54-.44-.6 0-1.127.147-1.58.44a3.02 3.02 0 0 0-1.08 1.16c-.253.48-.38 1.04-.38 1.68 0 .627.127 1.193.38 1.7.267.493.627.88 1.08 1.16.453.28.98.42 1.58.42ZM97.144 47l-4.28-10.88h2.86l3.1 8.56h-1.06l3.121-8.56h2.86L99.465 47h-2.32Zm13.013.24c-1.12 0-2.1-.253-2.94-.76a5.296 5.296 0 0 1-1.96-2.06c-.466-.867-.7-1.827-.7-2.88 0-1.093.234-2.06.7-2.9a5.433 5.433 0 0 1 1.94-2.02c.827-.493 1.747-.74 2.76-.74.854 0 1.6.14 2.24.42.654.28 1.207.667 1.66 1.16.454.493.8 1.06 1.04 1.7.24.627.36 1.307.36 2.04 0 .187-.013.38-.04.58a1.86 1.86 0 0 1-.1.52h-8.4v-2h6.92l-1.24.94c.12-.613.087-1.16-.1-1.64a2.267 2.267 0 0 0-.88-1.14c-.4-.28-.886-.42-1.46-.42-.546 0-1.033.14-1.46.42-.426.267-.753.667-.98 1.2-.213.52-.293 1.153-.24 1.9-.053.667.034 1.26.26 1.78.24.507.587.9 1.04 1.18.467.28 1 .42 1.6.42.6 0 1.107-.127 1.52-.38.427-.253.76-.593 1-1.02l2.12 1.04c-.213.52-.546.98-1 1.38a4.97 4.97 0 0 1-1.62.94c-.613.227-1.293.34-2.04.34Zm7.086-.24V36.12h2.46v2.42l-.2-.36c.254-.813.647-1.38 1.18-1.7.547-.32 1.2-.48 1.96-.48h.64v2.32h-.94c-.746 0-1.346.233-1.8.7-.453.453-.68 1.093-.68 1.92V47h-2.62Zm10.761 0-4.28-10.88h2.86l3.1 8.56h-1.06l3.12-8.56h2.86L130.324 47h-2.32Zm8.048 0V36.12h2.62V47h-2.62Zm0-12.1v-2.8h2.62v2.8h-2.62Zm10.199 12.34c-1.12 0-2.1-.253-2.94-.76a5.296 5.296 0 0 1-1.96-2.06c-.467-.867-.7-1.827-.7-2.88 0-1.093.233-2.06.7-2.9a5.433 5.433 0 0 1 1.94-2.02c.827-.493 1.747-.74 2.76-.74.853 0 1.6.14 2.24.42a4.78 4.78 0 0 1 1.66 1.16c.453.493.8 1.06 1.04 1.7.24.627.36 1.307.36 2.04 0 .187-.013.38-.04.58-.013.2-.047.373-.1.52h-8.4v-2h6.92l-1.24.94c.12-.613.087-1.16-.1-1.64a2.273 2.273 0 0 0-.88-1.14c-.4-.28-.887-.42-1.46-.42-.547 0-1.033.14-1.46.42-.427.267-.753.667-.98 1.2-.213.52-.293 1.153-.24 1.9-.053.667.033 1.26.26 1.78.24.507.587.9 1.04 1.18.467.28 1 .42 1.6.42.6 0 1.107-.127 1.52-.38.427-.253.76-.593 1-1.02l2.12 1.04c-.213.52-.547.98-1 1.38a4.97 4.97 0 0 1-1.62.94c-.613.227-1.293.34-2.04.34Zm9.826-.24-3.74-10.88h2.76l2.74 8.26-.96-.02 2.92-8.24h2.32l2.9 8.24-.96.02 2.74-8.26h2.76L165.817 47h-2.34l-2.96-8.62h.88l-3 8.62h-2.32Z"/><defs><linearGradient id="a" x1="219.183" x2="219.183" y1="84.003" y2="312.998" gradientUnits="userSpaceOnUse"><stop stop-color="#35F"/><stop offset="1" stop-color="#16BAFF"/></linearGradient><linearGradient id="b" x1="219.183" x2="219.183" y1="84.003" y2="312.998" gradientUnits="userSpaceOnUse"><stop stop-color="#2075FF"/><stop offset="1" stop-color="#16BAFF"/></linearGradient><linearGradient id="c" x1="219.183" x2="219.183" y1="84.003" y2="312.997" gradientUnits="userSpaceOnUse"><stop stop-color="#2075FF"/><stop offset="1" stop-color="#16BAFF"/></linearGradient><linearGradient id="d" x1="219.183" x2="219.183" y1="84.003" y2="312.998" gradientUnits="userSpaceOnUse"><stop stop-color="#2075FF"/><stop offset="1" stop-color="#16BAFF"/></linearGradient><linearGradient id="e" x1="219.183" x2="219.183" y1="84.002" y2="312.997" gradientUnits="userSpaceOnUse"><stop stop-color="#2075FF"/><stop offset="1" stop-color="#16BAFF"/></linearGradient><linearGradient id="f" x1="219.183" x2="219.183" y1="84.004" y2="312.999" gradientUnits="userSpaceOnUse"><stop stop-color="#2075FF"/><stop offset="1" stop-color="#16BAFF"/></linearGradient><linearGradient id="g" x1="219.183" x2="219.183" y1="84.003" y2="312.997" gradientUnits="userSpaceOnUse"><stop stop-color="#2075FF"/><stop offset="1" stop-color="#16BAFF"/></linearGradient><linearGradient id="h" x1="219.183" x2="219.183" y1="84.003" y2="312.998" gradientUnits="userSpaceOnUse"><stop stop-color="#2075FF"/><stop offset="1" stop-color="#16BAFF"/></linearGradient><linearGradient id="i" x1="219.183" x2="219.183" y1="84.003" y2="312.998" gradientUnits="userSpaceOnUse"><stop stop-color="#2075FF"/><stop offset="1" stop-color="#16BAFF"/></linearGradient><linearGradient id="j" x1="219.183" x2="219.183" y1="84.004" y2="312.999" gradientUnits="userSpaceOnUse"><stop stop-color="#2075FF"/><stop offset="1" stop-color="#16BAFF"/></linearGradient><linearGradient id="k" x1="219.183" x2="219.183" y1="84.003" y2="312.998" gradientUnits="userSpaceOnUse"><stop stop-color="#2075FF"/><stop offset="1" stop-color="#16BAFF"/></linearGradient><linearGradient id="l" x1="219.183" x2="219.183" y1="84.003" y2="312.998" gradientUnits="userSpaceOnUse"><stop stop-color="#2075FF"/><stop offset="1" stop-color="#16BAFF"/></linearGradient><linearGradient id="m" x1="219.183" x2="219.183" y1="84.003" y2="312.998" gradientUnits="userSpaceOnUse"><stop stop-color="#2075FF"/><stop offset="1" stop-color="#16BAFF"/></linearGradient><linearGradient id="n" x1="219.183" x2="219.183" y1="84.002" y2="312.997" gradientUnits="userSpaceOnUse"><stop stop-color="#2075FF"/><stop offset="1" stop-color="#16BAFF"/></linearGradient><linearGradient id="o" x1="219.183" x2="219.183" y1="84.003" y2="312.998" gradientUnits="userSpaceOnUse"><stop stop-color="#2075FF"/><stop offset="1" stop-color="#16BAFF"/></linearGradient><linearGradient id="p" x1="219.183" x2="219.183" y1="84.002" y2="312.997" gradientUnits="userSpaceOnUse"><stop stop-color="#2075FF"/><stop offset="1" stop-color="#16BAFF"/></linearGradient><linearGradient id="q" x1="219.183" x2="219.183" y1="84.003" y2="312.998" gradientUnits="userSpaceOnUse"><stop stop-color="#2075FF"/><stop offset="1" stop-color="#16BAFF"/></linearGradient><linearGradient id="r" x1="219.183" x2="219.183" y1="84.003" y2="312.998" gradientUnits="userSpaceOnUse"><stop stop-color="#2075FF"/><stop offset="1" stop-color="#16BAFF"/></linearGradient><linearGradient id="s" x1="219.183" x2="219.183" y1="84.003" y2="312.997" gradientUnits="userSpaceOnUse"><stop stop-color="#2075FF"/><stop offset="1" stop-color="#16BAFF"/></linearGradient><linearGradient id="t" x1="219.183" x2="219.183" y1="84.002" y2="312.997" gradientUnits="userSpaceOnUse"><stop stop-color="#2075FF"/><stop offset="1" stop-color="#16BAFF"/></linearGradient><linearGradient id="u" x1="219.183" x2="219.183" y1="84.003" y2="312.997" gradientUnits="userSpaceOnUse"><stop stop-color="#2075FF"/><stop offset="1" stop-color="#16BAFF"/></linearGradient><linearGradient id="v" x1="219.183" x2="219.183" y1="84.003" y2="312.997" gradientUnits="userSpaceOnUse"><stop stop-color="#2075FF"/><stop offset="1" stop-color="#16BAFF"/></linearGradient><linearGradient id="w" x1="219.183" x2="219.183" y1="84.003" y2="312.998" gradientUnits="userSpaceOnUse"><stop stop-color="#2075FF"/><stop offset="1" stop-color="#16BAFF"/></linearGradient><linearGradient id="x" x1="219.183" x2="219.183" y1="84.003" y2="312.998" gradientUnits="userSpaceOnUse"><stop stop-color="#2075FF"/><stop offset="1" stop-color="#16BAFF"/></linearGradient><linearGradient id="y" x1="219.183" x2="219.183" y1="84.003" y2="312.998" gradientUnits="userSpaceOnUse"><stop stop-color="#2075FF"/><stop offset="1" stop-color="#16BAFF"/></linearGradient><linearGradient id="z" x1="219.183" x2="219.183" y1="84.003" y2="312.998" gradientUnits="userSpaceOnUse"><stop stop-color="#2075FF"/><stop offset="1" stop-color="#16BAFF"/></linearGradient><linearGradient id="A" x1="219.183" x2="219.183" y1="84.003" y2="312.997" gradientUnits="userSpaceOnUse"><stop stop-color="#2075FF"/><stop offset="1" stop-color="#16BAFF"/></linearGradient><linearGradient id="B" x1="219.183" x2="219.183" y1="84.002" y2="312.997" gradientUnits="userSpaceOnUse"><stop stop-color="#2075FF"/><stop offset="1" stop-color="#16BAFF"/></linearGradient><linearGradient id="C" x1="219.183" x2="219.183" y1="84.003" y2="312.998" gradientUnits="userSpaceOnUse"><stop stop-color="#2075FF"/><stop offset="1" stop-color="#16BAFF"/></linearGradient><linearGradient id="D" x1="219.183" x2="219.183" y1="84.002" y2="312.997" gradientUnits="userSpaceOnUse"><stop stop-color="#2075FF"/><stop offset="1" stop-color="#16BAFF"/></linearGradient><linearGradient id="E" x1="219.183" x2="219.183" y1="84.003" y2="312.997" gradientUnits="userSpaceOnUse"><stop stop-color="#2075FF"/><stop offset="1" stop-color="#16BAFF"/></linearGradient><linearGradient id="F" x1="219.183" x2="219.183" y1="84.002" y2="312.997" gradientUnits="userSpaceOnUse"><stop stop-color="#2075FF"/><stop offset="1" stop-color="#16BAFF"/></linearGradient><linearGradient id="G" x1="219.183" x2="219.183" y1="84.003" y2="312.998" gradientUnits="userSpaceOnUse"><stop stop-color="#35F"/><stop offset="1" stop-color="#16BAFF"/></linearGradient><linearGradient id="H" x1="219.183" x2="219.183" y1="84.003" y2="312.998" gradientUnits="userSpaceOnUse"><stop stop-color="#35F"/><stop offset="1" stop-color="#16BAFF"/></linearGradient><linearGradient id="I" x1="219.183" x2="219.183" y1="84.003" y2="312.997" gradientUnits="userSpaceOnUse"><stop stop-color="#35F"/><stop offset="1" stop-color="#16BAFF"/></linearGradient><linearGradient id="J" x1="219.183" x2="219.183" y1="84.003" y2="312.998" gradientUnits="userSpaceOnUse"><stop stop-color="#2075FF"/><stop offset="1" stop-color="#16BAFF"/></linearGradient><linearGradient id="K" x1="219.183" x2="219.183" y1="84.004" y2="312.998" gradientUnits="userSpaceOnUse"><stop stop-color="#2075FF"/><stop offset="1" stop-color="#16BAFF"/></linearGradient><linearGradient id="L" x1="219.183" x2="219.183" y1="84.004" y2="312.998" gradientUnits="userSpaceOnUse"><stop stop-color="#35F"/><stop offset="1" stop-color="#16BAFF"/></linearGradient><linearGradient id="M" x1="219.183" x2="219.183" y1="84.003" y2="312.998" gradientUnits="userSpaceOnUse"><stop stop-color="#35F"/><stop offset="1" stop-color="#16BAFF"/></linearGradient><linearGradient id="N" x1="219.183" x2="219.183" y1="84.003" y2="312.998" gradientUnits="userSpaceOnUse"><stop stop-color="#35F"/><stop offset="1" stop-color="#16BAFF"/></linearGradient><linearGradient id="O" x1="219.183" x2="219.183" y1="84.003" y2="312.997" gradientUnits="userSpaceOnUse"><stop stop-color="#35F"/><stop offset="1" stop-color="#16BAFF"/></linearGradient><linearGradient id="P" x1="219.183" x2="219.183" y1="84.004" y2="312.998" gradientUnits="userSpaceOnUse"><stop stop-color="#35F"/><stop offset="1" stop-color="#16BAFF"/></linearGradient><linearGradient id="Q" x1="219.183" x2="219.183" y1="84.004" y2="312.998" gradientUnits="userSpaceOnUse"><stop stop-color="#35F"/><stop offset="1" stop-color="#16BAFF"/></linearGradient><linearGradient id="R" x1="219.183" x2="219.183" y1="84.002" y2="312.997" gradientUnits="userSpaceOnUse"><stop stop-color="#2075FF"/><stop offset="1" stop-color="#16BAFF"/></linearGradient><linearGradient id="S" x1="219.183" x2="219.183" y1="84.002" y2="312.997" gradientUnits="userSpaceOnUse"><stop stop-color="#35F"/><stop offset="1" stop-color="#16BAFF"/></linearGradient><linearGradient id="T" x1="219.183" x2="219.183" y1="84.003" y2="312.998" gradientUnits="userSpaceOnUse"><stop stop-color="#2075FF"/><stop offset="1" stop-color="#16BAFF"/></linearGradient></defs></svg>