<svg version="1.2" xmlns="http://www.w3.org/2000/svg" viewBox="0 0 132 22" width="132" height="22">
	<style>
		.s0 { fill: #ee3d2c } 
		.s1 { fill: #000000 } 
	</style>
	<path class="s0" d="m33.32 9.59l-8.63 4.86-9.24-5.19-0.45 0.24v3.77l9.69 5.43 8.63-4.84v1.99l-8.63 4.86-9.24-5.19-0.45 0.24v0.65l9.69 5.43 9.66-5.43v-3.77l-0.44-0.24-9.22 5.17-8.65-4.84v-1.99l8.65 4.84 9.66-5.43v-3.72l-0.48-0.28-9.18 5.16-8.21-4.58 8.21-4.6 6.74 3.78 0.59-0.33v-0.46l-7.33-4.12-9.69 5.43v0.59l9.69 5.44 8.63-4.87z"/>
	<path class="s1" d="m49.04 17.2v-12.2h-1.88v4.56q0 0.11-0.1 0.15-0.03 0.01-0.05 0.01-0.02 0.01-0.05 0-0.02-0.01-0.04-0.02-0.02-0.01-0.04-0.03c-0.64-0.74-1.64-1.17-2.73-1.17-2.32 0-4.15 1.96-4.15 4.46 0 1.22 0.42 2.35 1.2 3.18q0.28 0.31 0.62 0.55 0.34 0.24 0.72 0.4 0.38 0.16 0.79 0.25 0.41 0.08 0.82 0.08c1.08 0 2.08-0.45 2.73-1.22 0.04-0.06 0.12-0.07 0.18-0.06q0.1 0.04 0.11 0.15v0.91zm-4.49-1.48c-1.49 0-2.66-1.21-2.66-2.76 0-1.55 1.17-2.76 2.66-2.76 1.5 0 2.67 1.21 2.67 2.76 0 1.55-1.17 2.76-2.67 2.76zm14.54 1.48v-8.49h-1.87v0.86q0 0.1-0.11 0.14-0.02 0.01-0.05 0.02-0.02 0-0.05-0.01-0.02-0.01-0.04-0.02-0.02-0.02-0.03-0.04c-0.63-0.75-1.61-1.17-2.73-1.17-2.33 0-4.15 1.96-4.15 4.46 0 2.5 1.82 4.45 4.15 4.45 1.08 0 2.07-0.44 2.73-1.23 0.04-0.06 0.12-0.07 0.17-0.06q0.11 0.05 0.11 0.15v0.93h1.87zm-4.46-1.48c-1.49 0-2.67-1.21-2.67-2.76 0-1.55 1.18-2.76 2.67-2.76 1.5 0 2.67 1.21 2.67 2.76 0 1.55-1.17 2.76-2.67 2.76zm20.43 1.48v-8.49h-1.86v0.85q-0.01 0.11-0.11 0.15-0.11 0.03-0.18-0.05c-0.62-0.75-1.61-1.17-2.72-1.17-2.35 0-4.16 1.95-4.16 4.47 0 2.51 1.83 4.46 4.16 4.46 1.07 0 2.07-0.45 2.72-1.24 0.04-0.06 0.12-0.07 0.18-0.06q0.1 0.05 0.11 0.15v0.93zm-4.46-1.48c-1.49 0-2.67-1.21-2.67-2.76 0-1.55 1.18-2.76 2.67-2.76 1.5 0 2.67 1.21 2.67 2.76 0 1.55-1.17 2.76-2.67 2.76zm7.88 0.47q0.02-0.01 0.05-0.01 0.07 0 0.12 0.05c0.64 0.75 1.64 1.17 2.73 1.17 2.33 0 4.15-1.96 4.15-4.46 0-1.22-0.42-2.35-1.2-3.18q-0.28-0.3-0.62-0.54-0.34-0.24-0.72-0.4-0.38-0.17-0.79-0.25-0.41-0.09-0.82-0.08c-1.08 0-2.07 0.45-2.73 1.22q-0.06 0.08-0.17 0.05-0.11-0.04-0.11-0.15v-4.61h-1.88v12.2h1.88v-0.86q0-0.1 0.11-0.15zm-0.19-3.23c0-1.55 1.17-2.76 2.67-2.76 1.49 0 2.66 1.21 2.66 2.76 0 1.55-1.17 2.76-2.66 2.76-1.5 0-2.67-1.23-2.67-2.76zm12.68-2.51q0.27 0 0.45 0.04v-1.93q-0.04-0.01-0.08-0.02-0.04 0-0.08 0-0.04-0.01-0.08-0.01-0.04 0-0.08 0c-0.98 0-1.88 0.5-2.35 1.3q-0.07 0.11-0.18 0.07-0.03 0-0.05-0.02-0.02-0.01-0.04-0.03-0.01-0.02-0.02-0.05-0.01-0.02-0.01-0.05v-1.04h-1.87v8.5h1.88v-3.75c0-1.86 0.95-3.01 2.51-3.01zm3.54-1.74h-1.91v8.5h1.91zm-0.98-3.7c-0.31 0-0.62 0.11-0.84 0.33-0.22 0.22-0.35 0.52-0.35 0.83 0 0.31 0.13 0.61 0.35 0.83 0.22 0.21 0.53 0.33 0.84 0.32 0.31 0.02 0.61-0.1 0.84-0.32 0.23-0.22 0.35-0.52 0.35-0.83 0-0.31-0.12-0.61-0.35-0.83-0.23-0.22-0.53-0.34-0.84-0.33zm6.56 3.48c-2.61 0-4.51 1.88-4.51 4.47 0 1.27 0.45 2.39 1.26 3.21 0.81 0.81 1.96 1.26 3.24 1.26 1.06 0 1.88-0.2 3.43-1.34l-1.07-1.13q-1.14 0.75-2.17 0.75c-1.58 0-2.77-1.18-2.77-2.75 0-1.56 1.19-2.74 2.77-2.74q1.11 0 2.14 0.75l1.2-1.13c-1.41-1.2-2.67-1.35-3.52-1.35zm6.73 4.98q0.01-0.02 0.02-0.02 0.02-0.01 0.03-0.02 0.02 0 0.03 0 0.02-0.01 0.03-0.01h0.01q0.06 0.01 0.13 0.06l3.01 3.72h2.31l-3.89-4.7c-0.06-0.07-0.06-0.16 0.01-0.22l3.58-3.57h-2.3l-3.09 3.1q-0.07 0.06-0.18 0.04-0.02-0.01-0.04-0.03-0.01-0.01-0.03-0.03-0.01-0.02-0.02-0.05 0-0.02 0-0.04v-6.69h-1.9v12.2h1.88v-3.31q0-0.07 0.06-0.12z"/>
	<path class="s1" d="m115.47 17.42c1.54 0 3.11-0.94 3.11-2.72q0-1.74-2.24-2.46l-1.02-0.34q-1.03-0.34-1.02-1c0-0.52 0.46-0.87 1.12-0.87 0.62 0 1.18 0.41 1.54 1.11l1.51-0.81c-0.56-1.14-1.72-1.85-3.05-1.85-1.69 0-2.92 1.09-2.92 2.57 0 1.18 0.71 1.97 2.17 2.43l1.05 0.34c0.73 0.23 1.04 0.53 1.04 1 0 0.72-0.66 0.98-1.24 0.98-0.76 0-1.44-0.49-1.77-1.29l-1.53 0.82c0.5 1.29 1.74 2.09 3.25 2.09zm-51.14-0.08c0.6 0 1.13-0.06 1.43-0.1v-1.63q-0.12 0.01-0.24 0.02-0.11 0.01-0.23 0.02-0.12 0.01-0.24 0.01-0.12 0-0.23 0.01c-0.77 0-1.35-0.14-1.35-1.78v-3.5q0.01-0.15 0.16-0.16h1.84v-1.53h-1.84q-0.03 0-0.06-0.02-0.03-0.01-0.05-0.03-0.03-0.02-0.04-0.05-0.01-0.03-0.01-0.07v-2.44h-1.88v2.46q-0.01 0.15-0.16 0.16h-1.31v1.53h1.31q0.15 0.01 0.16 0.17v3.95c0 2.98 1.99 2.98 2.74 2.98z"/>
</svg>